<?xml version="1.0" encoding="UTF-8" standalone="no"?>
<!-- Created with Inkscape (http://www.inkscape.org/) -->

<svg
   version="1.1"
   id="svg103"
   width="80 "
   height="80"
   viewBox="0 0 405.93323 196.43985"
   xmlns="http://www.w3.org/2000/svg"
   xmlns:svg="http://www.w3.org/2000/svg">
  <defs
     id="defs107" />
  <path
     id="path225"
     style="fill:#ffffff;stroke-width:1.23686"
     d="m 223.68385,-0.06774558 c -0.80193,-0.006 -1.60405,-0.001 -2.40625,0.006 0.17531,0.0284 0.3493,0.0667 0.52539,0.0898 1.01144,0.0745 2.01749,0.2026 2.99609,0.47852 -0.36091,-0.21308 -0.72647,-0.41551 -1.11523,-0.57422 z M 198.70729,2.4732644 c -0.51014,-0.006 -1.02044,-0.002 -1.52735,0.0547 -1.26665,0.18172 -2.53864,0.32468 -3.81445,0.42188 -1.32003,0.0916 -2.64235,0.11892 -3.96484,0.14062 -1.14306,-0.0405 -2.26599,0.18641 -3.39258,0.33984 -1.04906,0.14671 -2.10689,0.21197 -3.16406,0.25977 -0.89771,0.036 -1.79702,0.0476 -2.69532,0.0566 -0.99372,0.008 -1.98673,0.0107 -2.98047,0.0117 -0.84456,10e-4 -1.68845,0.002 -2.5332,0.002 -0.13536,3e-5 -0.27084,-1e-5 -0.40625,0 -0.42896,0.22532 -0.87152,0.38703 -1.31055,0.46485 -14.15519,2.50866 -29.5778,6.4785896 -40.28515,10.3671806 -66.817714,24.2668 -113.476097,82.9547 -117.80274,148.175785 l -0.761719,11.48632 -4.2753924,0.73438 c -8.773039,1.51152 -12.4445409,11.13097 -6.3769529,16.70312 2.96613,2.72405 4.0964199,2.92009 17.7460953,3.0586 8.018045,0.0813 25.033185,0.4811 37.810545,0.88867 27.48265,0.87665 262.647124,1.00956 262.660164,0.14844 0.005,-0.32595 16.99374,-0.72743 37.75195,-0.89258 20.75816,-0.16516 39.03877,-0.57303 40.62305,-0.90625 3.83409,-0.80648 7.18757,-6.90918 6.16015,-11.20508 -1.09488,-4.57886 -4.65238,-7.22926 -10.70312,-7.97461 l -5.08984,-0.62695 -0.875,-10.82813 C 385.41911,112.88692 357.93075,66.634155 314.00416,36.318975 294.25303,22.687935 264.12564,10.297694 239.99049,5.8795144 c -2.16312,-0.39597 -3.77411,-0.70688 -5.05273,-1.0332 -0.32009,0.1074 -0.69513,0.17383 -1.13868,0.17383 h -1.94922 c -0.94499,0.0415 -1.87493,-0.0267 -2.80468,-0.19531 -0.87553,-0.14674 -1.74499,-0.24934 -2.58985,-0.53125 -0.78342,-0.22239 -1.56725,-0.43909 -2.35156,-0.66211 -0.8237,-0.255 -1.68023,-0.33118 -2.53515,-0.39258 -1.02861,-0.1073 -2.03475,-0.35343 -3.05665,-0.50977 -0.95581,-0.13238 -1.92115,-0.16791 -2.88476,-0.19531 -1.24591,-0.0282 -2.4921,-0.0379 -3.73828,-0.0449 -0.99852,-0.006 -1.99757,-0.007 -2.9961,-0.008 -0.88966,-6.9e-4 -1.78026,1.3e-4 -2.66992,0 -0.9878,-1.2e-4 -1.97508,2e-5 -2.96289,0 -1.00766,-1e-5 -2.01578,0 -3.02344,0 -0.50918,0.0158 -1.01915,10e-4 -1.52929,-0.008 z" />
  <path
     style="fill:#040404;stroke-width:0.740167"
     d="m 146.74794,179.38289 c 0.55872,-2.32474 0.41527,-16.23556 -0.18591,-18.02914 -0.29781,-0.88846 -13.36887,-11.69351 -29.04679,-24.01118 l -28.505304,-22.39576 4.88442,-3.75161 c 2.68642,-2.0634 9.233514,-7.0883 14.549094,-11.16648 30.03368,-23.042253 37.26664,-28.802273 37.92784,-30.204043 1.06219,-2.25191 0.99635,-18.38587 -0.0809,-19.8133 -0.6426,-0.85151 -8.04198,4.73553 -35.29234,26.64812 -18.963604,15.24904 -34.940564,28.565563 -35.504354,29.592243 -1.54555,2.81446 -1.47056,15.91253 0.10549,18.42897 0.62184,0.99286 15.9762,13.66396 34.120814,28.15801 18.14462,14.49405 33.24063,26.72875 33.54669,27.1882 0.90531,1.35902 3.09727,0.9535 3.48121,-0.64403 z"
     id="path1519" />
  <g
     id="g109"
     transform="translate(-77.6508,-116.64576)" />
  <path
     style="fill:#040404;stroke-width:0.789394"
     d="m 265.63414,179.3829 c -0.63551,-2.32474 -0.47234,-16.23556 0.21146,-18.02914 0.33874,-0.88846 15.20628,-11.69351 33.03897,-24.01118 l 32.42306,-22.39577 -5.55573,-3.75161 c -3.05564,-2.0634 -10.50256,-7.0883 -16.54871,-11.16648 -34.1615,-23.042253 -42.38856,-28.802273 -43.14063,-30.204043 -1.20818,-2.25191 -1.13329,-18.38587 0.092,-19.8133 0.73091,-0.85151 9.14726,4.73553 40.1429,26.64812 21.56995,15.24904 39.74278,28.565563 40.38406,29.592243 1.75797,2.81446 1.67267,15.91254 -0.11999,18.42898 -0.70731,0.99286 -18.17196,13.66396 -38.81036,28.15801 -20.63841,14.49405 -37.80921,26.72875 -38.15734,27.1882 -1.02973,1.35902 -3.52296,0.9535 -3.95966,-0.64403 z"
     id="path1548" />
  <path
     style="fill:#000000;stroke-width:0.19627"
     d="m 164.27716,181.24711 c -0.29705,-0.37347 -0.31586,-4.274 -0.31586,-65.51084 0,-62.815228 0.0119,-65.125943 0.33649,-65.460202 0.30771,-0.316861 1.71424,-0.34649 16.44745,-0.34649 15.24164,0 19.99766,0.124034 24.70773,0.644327 19.64091,2.169637 33.17732,10.011349 41.17095,23.850554 1.5332,2.654384 3.92126,8.113606 4.81688,11.011587 2.75099,8.901527 3.97752,17.748314 4.03172,29.080444 0.0155,3.22412 -0.0379,6.89835 -0.11856,8.16495 -0.67422,10.59025 -2.55211,19.1434 -5.93314,27.02354 -2.29961,5.35966 -5.10723,9.80042 -8.92426,14.11531 -7.77144,8.78508 -18.82935,14.53448 -32.00762,16.6419 -6.13315,0.98079 -6.44629,0.99414 -25.58194,1.09015 -17.80308,0.0893 -18.3228,0.0808 -18.62984,-0.30523 z m 36.20977,-23.38292 c 7.29332,-1.189 12.56969,-3.92191 16.775,-8.68861 5.11194,-5.79439 8.15898,-14.34003 9.07356,-25.44734 0.87069,-10.57431 -0.0149,-21.66402 -2.34899,-29.414777 -1.54421,-5.127877 -3.36538,-8.585565 -6.37366,-12.101191 -4.03287,-4.713014 -9.60578,-7.628154 -16.68306,-8.72678 -1.20775,-0.187467 -3.71917,-0.350552 -5.79596,-0.376335 l -3.66474,-0.04551 -0.0472,42.394953 c -0.0259,23.31726 -0.003,42.52722 0.051,42.68883 0.0819,0.24486 0.68776,0.27077 3.63516,0.15544 1.9453,-0.076 4.36577,-0.2735 5.37882,-0.43867 z"
     id="path1665" />
</svg>
