<?xml version="1.0" encoding="UTF-8" standalone="no"?>
<!-- Created with Inkscape (http://www.inkscape.org/) -->

<svg
   version="1.1"
   id="svg1036"
   width="70"
   height="70"
   viewBox="0 0 100 100"
   xmlns="http://www.w3.org/2000/svg"
   xmlns:svg="http://www.w3.org/2000/svg">
  <defs
     id="defs1040" />
  <g
     id="g1042"
     transform="translate(-202.19873,-192.68076)">
    <g
       id="g1076"
       transform="translate(1.0135741,0.45296649)">
      <path
         style="fill:#03d1d8;stroke-width:0.194145"
         d="m 230.27715,265.27986 c -3.36961,-3.52937 -5.16226,-7.87781 -5.16869,-12.53772 -0.0103,-7.44707 4.34826,-13.87617 11.32556,-16.70591 2.51856,-1.02144 5.95752,-1.58465 8.07769,-1.32291 1.07089,0.1322 1.07089,0.1322 1.13528,1.42997 0.0644,1.29776 0.0644,1.29776 -1.18655,1.35277 -2.64381,0.11626 -6.45087,1.44647 -8.89481,3.10789 -0.48491,0.32965 -1.39889,1.07253 -2.03109,1.65085 -6.41049,5.86422 -7.63555,15.69642 -2.85102,22.88207 0.55922,0.83986 0.99387,1.52702 0.96588,1.52702 -0.028,0 -0.64549,-0.62281 -1.37225,-1.38403 z m 13.82311,-1.61039 c -0.67126,-0.14409 -1.67841,-0.50626 -2.23811,-0.80484 -0.99108,-0.5287 -3.08438,-2.39894 -3.08438,-2.7557 0,-0.098 0.50537,0.0559 1.12305,0.34191 1.01644,0.47067 1.33722,0.52003 3.37927,0.52003 2.21092,0 2.28579,-0.0144 3.72862,-0.71902 2.29543,-1.12093 3.92558,-3.07228 4.55187,-5.44875 0.26454,-1.00377 0.30313,-3.70019 0.30313,-21.17996 0,-20.02975 0,-20.02975 5.07812,-20.02975 5.07813,0 5.07813,0 5.07813,0.74782 0,0.41129 0.0549,1.01919 0.12207,1.35088 0.12207,0.60308 0.12207,0.60308 -3.71094,0.60308 -3.83301,0 -3.83301,0 -3.83301,19.75448 0,12.33119 -0.0733,20.1451 -0.19507,20.79398 -0.65947,3.51414 -3.58982,6.35393 -7.1512,6.9302 -1.41765,0.22939 -1.62927,0.22238 -3.15155,-0.10436 z m 30.4194,-34.03309 c -1.87199,-0.59211 -3.87347,-1.76874 -5.39164,-3.16964 -0.80174,-0.73981 -1.42148,-1.38091 -1.37719,-1.42467 0.0443,-0.0438 0.59669,0.22967 1.22756,0.60761 1.48483,0.88952 3.90109,1.64794 5.68805,1.78535 1.41602,0.1089 1.41602,0.1089 1.41602,1.33543 0,1.38644 0.0301,1.36975 -1.5628,0.86592 z"
         id="path1082" />
      <path
         style="fill:#d70244;stroke-width:0.194145"
         d="m 243.4771,273.22175 c -3.90156,-0.53982 -7.70668,-2.45101 -10.5587,-5.30329 -1.26953,-1.26965 -1.26953,-1.26965 0.37457,-0.20224 1.73587,1.12699 3.84261,2.02189 6.02439,2.55906 1.80249,0.44378 6.10271,0.44378 7.9052,0 7.21918,-1.77739 12.30818,-6.90355 13.93079,-14.03251 0.21646,-0.95101 0.33402,-3.88941 0.48608,-12.14947 0.11032,-5.99229 0.21909,-10.91085 0.24173,-10.93014 0.0226,-0.0193 0.81697,0.4291 1.7652,0.99639 3.05207,1.82595 7.09124,3.0935 10.5318,3.30503 1.9043,0.11709 1.9043,0.11709 1.9043,-3.64288 0,-3.75996 0,-3.75996 1.12305,-3.68198 0.61767,0.0429 1.23291,0.11245 1.36718,0.15456 0.18692,0.0586 0.24415,1.2315 0.24415,5.00372 0,4.92713 0,4.92713 -1.12305,4.92636 -3.69407,-0.003 -8.84638,-1.63053 -12.14523,-3.83752 -0.47626,-0.31863 -0.93768,-0.5355 -1.02539,-0.48195 -0.0877,0.0536 -0.16474,2.54556 -0.1712,5.53778 -0.006,2.99222 -0.0859,8.00226 -0.17647,11.13341 -0.13947,4.81936 -0.22789,5.92995 -0.57619,7.23689 -2.06152,7.73551 -8.84659,13.15136 -16.91138,13.49868 -1.07422,0.0463 -2.51909,0.006 -3.21083,-0.0899 z m -6.23042,-14.61493 c -2.64636,-2.64739 -3.26386,-6.42871 -1.58611,-9.71268 1.61463,-3.16043 4.59409,-4.78474 8.38485,-4.57118 1.7636,0.0994 1.7636,0.0994 1.7636,-3.44661 0,-3.99466 -0.15694,-3.66565 1.6329,-3.42325 0.90616,0.12273 0.90616,0.12273 0.90616,4.87284 0,4.75011 0,4.75011 -2.29492,4.75011 -2.17691,0 -2.3628,0.0318 -3.61494,0.61783 -1.82249,0.853 -3.3052,2.28932 -4.19063,4.0595 -0.60628,1.2121 -0.72589,1.66848 -0.79926,3.04965 -0.0906,1.70513 0.12384,2.91982 0.73661,4.17299 0.19914,0.40725 0.31907,0.74046 0.26651,0.74046 -0.0525,0 -0.5947,-0.49935 -1.20477,-1.10966 z m 29.22616,-34.80065 c -1.33087,-0.98152 -3.37877,-4.32617 -3.93309,-6.42356 -0.29204,-1.10503 -0.29204,-1.10503 0.91244,-1.04799 1.20449,0.057 1.20449,0.057 1.32837,1.42646 0.16384,1.811 0.62723,3.34188 1.52781,5.04728 0.40636,0.76952 0.72831,1.39638 0.71545,1.39302 -0.0129,-0.003 -0.2608,-0.18121 -0.55098,-0.39521 z"
         id="path1080" />
      <path
         style="fill:#202020;stroke-width:0.194145"
         d="m 247.27387,292.7062 c -12.28567,-1.2517 -22.93543,-6.35615 -31.44532,-15.07179 -3.80427,-3.89626 -6.25574,-7.34495 -8.77329,-12.34212 -2.38248,-4.72906 -3.95602,-9.76527 -4.72681,-15.1285 -0.49845,-3.46822 -0.49845,-9.84765 0,-13.31587 1.21917,-8.48305 4.51054,-16.32355 9.75937,-23.2482 1.59392,-2.10282 6.57888,-7.1445 8.65537,-8.75384 12.47147,-9.66577 28.6473,-13.03139 43.75597,-9.10409 3.55419,0.92386 5.83528,1.77174 9.33721,3.47061 5.1149,2.48136 8.59308,4.8938 12.66513,8.78447 4.3711,4.17639 7.4744,8.36232 10.08654,13.60534 3.14396,6.3105 4.6111,11.68182 5.12624,18.76766 0.47024,6.46815 -0.59263,13.87767 -2.87606,20.0497 -1.05283,2.84578 -3.59278,7.79046 -5.28928,10.29697 -7.95873,11.75876 -20.30738,19.54267 -34.31937,21.63304 -2.98966,0.44602 -9.24649,0.63265 -11.9557,0.35662 z m 3.00654,-19.86943 c 6.41663,-1.52949 11.60869,-6.60652 13.3189,-13.0238 0.3483,-1.30694 0.43672,-2.41753 0.57619,-7.23689 0.0906,-3.13115 0.17002,-8.14119 0.17647,-11.13341 0.006,-2.99222 0.0835,-5.48422 0.1712,-5.53778 0.0877,-0.0536 0.54913,0.16332 1.02539,0.48195 3.30014,2.20786 8.45113,3.83497 12.14853,3.83752 1.12634,7.7e-4 1.12634,7.7e-4 1.07421,-4.96855 -0.0521,-4.96933 -0.0521,-4.96933 -0.93103,-5.02023 -1.76453,-0.10217 -1.75781,-0.0965 -1.75781,-1.49665 0,-1.25071 0,-1.25071 -0.94532,-1.25071 -2.00945,0 -5.31518,-1.14053 -7.18517,-2.47899 -1.4331,-1.02575 -2.91486,-4.41226 -3.17141,-7.24815 -0.12388,-1.36942 -0.12388,-1.36942 -1.32192,-1.42629 -1.16523,-0.0553 -1.20133,-0.0732 -1.31836,-0.65132 -0.0662,-0.32695 -0.12032,-0.93097 -0.12032,-1.34226 0,-0.74782 0,-0.74782 -5.07813,-0.74782 -5.07812,0 -5.07812,0 -5.07812,20.02975 0,17.47977 -0.0386,20.17619 -0.30313,21.17996 -0.62629,2.37647 -2.25644,4.32782 -4.55187,5.44875 -1.44283,0.70458 -1.5177,0.71902 -3.72862,0.71902 -2.07039,0 -2.35583,-0.0455 -3.46556,-0.55202 -1.0178,-0.46458 -1.27186,-0.68345 -1.60411,-1.38187 -0.64312,-1.35185 -0.85359,-2.51134 -0.76356,-4.20634 0.16069,-3.02495 1.94831,-5.63385 4.82183,-7.03708 1.44466,-0.70548 1.50793,-0.71751 3.77434,-0.71751 2.30505,0 2.30505,0 2.30505,-4.76466 0,-4.76466 0,-4.76466 -1.36718,-4.89777 -1.36719,-0.13311 -1.36719,-0.13311 -1.36719,-1.34868 0,-1.21558 0,-1.21558 -1.08644,-1.3497 -2.92373,-0.36094 -7.46692,0.70805 -10.53465,2.47875 -6.60439,3.81206 -10.08574,11.64362 -8.51619,19.15777 0.7969,3.81509 2.34877,6.42582 6.0363,10.15492 3.587,3.62744 5.76566,5.05859 9.32766,6.12731 2.87042,0.86121 6.36297,0.93624 9.44002,0.20278 z"
         id="path1078" />
    </g>
  </g>
</svg>
