<?xml version="1.0" encoding="UTF-8"?>
<!DOCTYPE svg PUBLIC "-//W3C//DTD SVG 1.1//EN" "http://www.w3.org/Graphics/SVG/1.1/DTD/svg11.dtd">
<!-- Creator: CorelDRAW 2020 (64-Bit) -->
<svg xmlns="http://www.w3.org/2000/svg" xml:space="preserve" width="31.25in" height="31.25in" version="1.1" style="shape-rendering:geometricPrecision; text-rendering:geometricPrecision; image-rendering:optimizeQuality; fill-rule:evenodd; clip-rule:evenodd"
viewBox="0 0 31249.99 31249.99"
 xmlns:xlink="http://www.w3.org/1999/xlink"
 xmlns:xodm="http://www.corel.com/coreldraw/odm/2003">
 <defs>
  <style type="text/css">
   <![CDATA[
    .fil0 {fill:#373F47;fill-rule:nonzero}
   ]]>
  </style>
 </defs>
 <g id="__x0023_Layer_x0020_2">
  <metadata id="CorelCorpID_0Corel-Layer"/>
  <g id="_1890016134368">
   <g>
    <path class="fil0" d="M4422.74 26949.64c619.87,686.28 1567.82,746.43 3074.07,-3111.09 759.83,-1945.86 2668.62,-630.12 3375.68,-1730.56 515.12,-801.65 63.5,-1927.63 -960.88,-2426.27 -1827.6,-889.74 -3373.65,-347.18 -3674.96,1376.99 -534.93,3060.32 -3502.58,4021.45 -1813.91,5890.94z"/>
    <g>
     <path class="fil0" d="M11573.86 19717.04c-337.73,337.69 -420.69,802.34 -185.24,1037.74 235.4,235.4 700.03,152.46 1037.74,-185.31 337.78,-337.71 420.76,-802.43 185.36,-1037.83 -235.44,-235.4 -700.07,-152.46 -1037.85,185.4z"/>
     <path class="fil0" d="M11138.37 19396.48c-220.02,220.02 -506.26,290.46 -639.38,157.47 -133.02,-133.08 -62.44,-419.32 157.53,-639.43 220.06,-220.01 506.28,-290.55 639.36,-157.47 133.08,133.08 62.52,419.26 -157.51,639.43z"/>
     <path class="fil0" d="M10051.95 18961.52c-187.54,187.41 -431.43,247.54 -544.79,134.15 -113.39,-113.39 -53.3,-357.31 134.24,-544.7 187.48,-187.54 431.41,-247.72 544.8,-134.31 113.34,113.39 53.23,357.31 -134.25,544.86z"/>
     <path class="fil0" d="M8983.67 18738.3c-166.42,166.38 -382.97,219.77 -483.63,119.22 -100.59,-100.69 -47.23,-317.24 119.19,-483.63 166.42,-166.4 382.91,-219.77 483.57,-119.08 100.62,100.55 47.27,317.1 -119.13,483.5z"/>
     <path class="fil0" d="M8007.4 18806.13c-148.33,148.25 -357.07,179.93 -466.35,70.76 -109.19,-109.24 -77.51,-318.02 70.74,-466.33 148.31,-148.22 357.07,-179.93 466.31,-70.67 109.23,109.21 77.53,318.02 -70.7,466.24z"/>
    </g>
   </g>
   <g>
    <path class="fil0" d="M18552 12820.38c619.89,686.14 1567.86,746.34 3074.26,-3111.12 759.71,-1945.88 2668.44,-630.11 3375.54,-1730.6 515.12,-801.63 63.55,-1927.63 -960.88,-2426.3 -1827.58,-889.72 -3373.58,-347.11 -3674.96,1377.04 -534.88,3060.32 -3502.58,4021.49 -1813.96,5890.98z"/>
    <g>
     <path class="fil0" d="M25703.24 5587.65c-337.71,337.76 -420.8,802.34 -185.4,1037.78 235.4,235.44 700.03,152.49 1037.83,-185.27 337.87,-337.76 420.78,-802.43 185.31,-1037.8 -235.4,-235.42 -700.03,-152.47 -1037.74,185.29z"/>
     <path class="fil0" d="M25267.65 5267.11c-219.99,219.99 -506.25,290.53 -639.34,157.47 -133.15,-133.02 -62.45,-419.3 157.49,-639.31 220.15,-220.06 506.41,-290.59 639.41,-157.54 133.02,133.06 62.54,419.28 -157.56,639.38z"/>
     <path class="fil0" d="M24181.3 4832.2c-187.54,187.5 -431.5,247.61 -544.88,134.22 -113.39,-113.39 -53.24,-357.29 134.31,-544.8 187.41,-187.45 431.43,-247.63 544.73,-134.26 113.48,113.41 53.23,357.31 -134.16,544.84z"/>
     <path class="fil0" d="M23113.02 4608.99c-166.4,166.37 -383.02,219.76 -483.63,119.15 -100.64,-100.62 -47.31,-317.17 119.15,-483.61 166.4,-166.33 382.86,-219.72 483.57,-119.06 100.62,100.57 47.32,317.08 -119.08,483.52z"/>
     <path class="fil0" d="M22136.73 4676.83c-148.38,148.31 -357.09,179.98 -466.42,70.7 -109.15,-109.19 -77.46,-317.93 70.78,-466.17 148.4,-148.31 357.03,-180.02 466.26,-70.76 109.24,109.24 77.53,318.02 -70.63,466.24z"/>
    </g>
   </g>
   <g>
    <path class="fil0" d="M14711.87 23109.44c-686.19,-619.82 -746.39,-1567.87 3111.09,-3074.1 1945.88,-759.8 630.12,-2668.53 1730.56,-3375.57 801.65,-515.25 1927.64,-63.53 2426.28,960.83 889.74,1827.47 347.18,3373.63 -1376.99,3674.89 -3060.39,535.02 -4021.49,3502.56 -5890.94,1813.94z"/>
    <g>
     <path class="fil0" d="M21944.56 15958.37c-337.78,337.71 -802.41,420.64 -1037.74,185.24 -235.4,-235.4 -152.56,-700.03 185.15,-1037.76 337.8,-337.8 802.43,-420.71 1037.83,-185.33 235.48,235.44 152.56,699.98 -185.25,1037.85z"/>
     <path class="fil0" d="M22265.12 16393.86c-220.08,219.92 -290.62,506.25 -157.56,639.33 133.11,133.09 419.35,62.46 639.43,-157.53 220.01,-220.04 290.55,-506.34 157.47,-639.27 -133.08,-133.08 -419.33,-62.63 -639.34,157.47z"/>
     <path class="fil0" d="M22700.08 17480.23c-187.63,187.52 -247.63,431.47 -134.33,544.86 113.41,113.32 357.34,53.17 544.88,-134.31 187.39,-187.48 247.55,-431.34 134.18,-544.8 -113.41,-113.32 -357.34,-53.23 -544.73,134.24z"/>
     <path class="fil0" d="M22923.24 18548.5c-166.4,166.49 -219.79,382.95 -119.17,483.57 100.55,100.7 317.19,47.31 483.57,-119.09 166.4,-166.46 219.72,-382.93 119.17,-483.63 -100.64,-100.61 -317.1,-47.16 -483.57,119.15z"/>
     <path class="fil0" d="M22855.31 19524.87c-148.31,148.22 -180.02,357 -70.69,466.24 109.24,109.24 318.02,77.55 466.24,-70.76 148.24,-148.25 180.02,-357.03 70.72,-466.26 -109.17,-109.24 -317.95,-77.55 -466.26,70.79z"/>
    </g>
   </g>
  </g>
 </g>
</svg>
