<?xml version="1.0" encoding="UTF-8" standalone="no"?>
<!-- Created with Inkscape (http://www.inkscape.org/) -->

<svg
   width="70  "
   height="70"
   viewBox="0 0 132.29166 132.29167"
   version="1.1"
   id="svg5"
   xmlns="http://www.w3.org/2000/svg"
   xmlns:svg="http://www.w3.org/2000/svg">
  <defs
     id="defs2" />
  <g
     id="layer2"
     style="display:inline">
    <path
       style="display:inline; fill:#000000;fill-opacity:1;stroke-width:0.260871"
       d="M -0.12540234,66.698946 V -0.10059019 H 68.084119 136.29365 V 66.698946 133.49848 H 68.084119 -0.12540234 Z M 43.136848,122.34371 c 0.322425,-0.74471 0.639694,-1.47843 0.705044,-1.63049 0.15312,-0.35621 -1.031547,-0.88416 -1.984023,-0.88416 -0.880427,0 -1.546164,0.64699 -1.764693,1.71501 -0.133974,0.65476 -0.02651,0.8877 0.676774,1.46608 1.247393,1.02592 1.687912,0.90189 2.366898,-0.66644 z m -2.190096,0.36659 c -0.58718,-0.6342 -0.550634,-1.4803 0.09102,-2.10748 0.604,-0.59039 1.288792,-0.65948 1.916666,-0.19339 0.400286,0.29712 0.391258,0.41844 -0.115133,1.5475 -0.595456,1.32761 -1.154787,1.55025 -1.892565,0.75343 z m 55.35868,-0.34348 c 0.369639,-0.16461 0.672087,-0.40008 0.672087,-0.52318 0,-0.12318 -0.358792,-0.91862 -0.797328,-1.76775 l -0.797328,-1.54385 -0.783376,0.39597 c -1.056493,0.53401 -1.672311,1.49388 -1.438709,2.24248 0.439579,1.40871 1.641249,1.86588 3.144654,1.19633 z m -2.079275,-0.36353 c -0.95129,-0.92983 -0.77449,-2.08793 0.413635,-2.70944 0.404214,-0.21152 0.581523,-0.046 1.172059,1.09299 0.662055,1.27699 0.672749,1.35861 0.220744,1.68174 -0.633641,0.45289 -1.300865,0.42878 -1.806311,-0.0653 z m -56.67122,-1.85184 c 1.087189,-1.50876 0.929248,-2.90153 -0.329041,-2.90153 -0.808152,0 -1.993171,1.36118 -1.993171,2.28946 0,1.43212 1.454961,1.81563 2.322212,0.61207 z m -1.775343,0.0869 c -0.620959,-0.73133 0.813962,-2.96818 1.692637,-2.63862 0.614965,0.2308 0.473776,1.32922 -0.283956,2.20944 -0.767101,0.89108 -0.965239,0.95145 -1.408676,0.42918 z m 65.367016,-0.46097 c 0.48579,-0.47485 0.37876,-1.32952 -0.28758,-2.29598 -1.017459,-1.47572 -2.890579,-1.02972 -2.474856,0.58929 0.403374,1.57083 1.933946,2.51647 2.762416,1.70669 z m -1.149932,-0.14592 c -0.926516,-0.62888 -1.512826,-2.4034 -0.913684,-2.76532 0.80018,-0.48339 2.462516,1.85742 1.839846,2.59076 -0.35431,0.4173 -0.522,0.44889 -0.926162,0.17469 z M 33.58356,118.87731 c -0.601166,-0.15367 -0.591458,-0.21037 0.26385,-1.54572 0.508646,-0.79406 0.863714,-1.09861 1.187399,-1.01838 0.711587,0.17641 0.547467,-0.1925 -0.304579,-0.68433 -0.930284,-0.53712 -1.251492,-0.56751 -0.836808,-0.0792 0.243405,0.28661 0.13484,0.63927 -0.514533,1.67086 -0.873456,1.38749 -0.850671,1.85315 0.0883,1.80456 0.446408,-0.023 0.47292,-0.057 0.116355,-0.14791 z m 70.66137,-1.22108 c 0.37898,-0.56532 0.38015,-0.69871 0.0127,-1.3941 -0.58043,-1.09708 -1.15734,-1.59155 -1.85693,-1.59155 -1.43143,0 -1.51305,1.5399 -0.15225,2.87007 0.92552,0.90469 1.44764,0.9349 1.99686,0.11569 z m -1.9617,-0.62547 c -1.20381,-1.65243 -0.26337,-2.82428 1.08384,-1.35054 0.88677,0.97006 0.90421,1.91437 0.0377,2.03514 -0.38122,0.0532 -0.74641,-0.16977 -1.12142,-0.6846 z m -71.53624,-0.0389 c 0,-0.14187 -0.118723,-0.25785 -0.263877,-0.25785 -0.439972,0 -0.302624,-0.38612 0.543385,-1.52766 0.660508,-0.89121 0.876354,-1.03317 1.1874,-0.78086 0.24292,0.19711 0.380149,0.21036 0.380149,0.0366 0,-0.26072 -1.362468,-1.33869 -1.692136,-1.33869 -0.08769,0 -0.02139,0.21581 0.147062,0.47962 0.257667,0.40328 0.150523,0.67925 -0.672897,1.73334 -0.906685,1.16064 -0.945095,1.27814 -0.517652,1.58366 0.554079,0.396 0.888564,0.42313 0.888564,0.0719 z m 76.37228,-1.2711 c 1.14227,-1.23372 -1.50028,-3.97728 -2.70073,-2.80394 -0.57401,0.56109 -0.3443,1.52045 0.58051,2.42438 1.02609,1.00295 1.46954,1.08231 2.12022,0.37956 z m -1.75516,-0.46984 c -0.87226,-0.97739 -1.07954,-1.64312 -0.64411,-2.0687 0.36338,-0.35519 0.4696,-0.35567 1.01756,-0.006 0.77518,0.49648 1.38502,1.59396 1.1783,2.12055 -0.21158,0.53907 -1.05137,0.51361 -1.55175,-0.0472 z m -76.491518,-1.23403 c 0.908729,-1.01162 1.027373,-1.68478 0.404286,-2.29381 -0.521971,-0.51019 -0.896982,-0.51082 -1.639081,-0.003 -0.574691,0.39344 -1.376539,1.64315 -1.376539,2.14536 0,0.41726 0.796251,1.06289 1.310851,1.06289 0.26485,0 0.850067,-0.41027 1.300483,-0.91167 z m -1.753768,0.46846 c -0.547403,-0.19195 -0.371951,-1.19408 0.340514,-1.9451 1.237371,-1.30433 2.353552,-0.68854 1.433205,0.79072 -0.538647,0.86575 -1.259209,1.33472 -1.773719,1.15438 z m 83.057306,-1.23944 c 0.18357,-0.21612 0.25105,-0.47398 0.14997,-0.57282 -0.10108,-0.099 -0.29588,-0.009 -0.43281,0.19969 -0.20216,0.30808 -0.42084,0.18532 -1.16315,-0.65225 -0.95495,-1.07763 -1.16312,-1.66229 -0.60416,-1.6968 0.24468,-0.0143 0.23984,-0.0555 -0.0178,-0.15654 -0.19172,-0.0748 -0.63708,0.12862 -0.9895,0.4522 -0.69065,0.63417 -0.90103,1.28858 -0.24265,0.7544 0.33425,-0.27107 0.57111,-0.13123 1.47367,0.87113 1.18079,1.31118 1.33644,1.37941 1.8275,0.80108 z m -83.942209,-1.55023 c 1.194515,-1.32977 0.99349,-2.44118 -0.441532,-2.44118 -0.809726,0 -2.169798,1.32937 -2.169798,2.12084 0,1.47008 1.421852,1.64453 2.61133,0.32034 z m -2.030822,0.34426 c -0.456707,-0.44639 -0.408281,-0.60219 0.502294,-1.61588 0.864277,-0.96214 1.257488,-1.10015 1.753438,-0.61538 0.384113,0.37545 -0.192432,1.55359 -1.046378,2.13825 -0.706637,0.48376 -0.802074,0.4911 -1.209354,0.0929 z m 88.289781,-0.77372 c 0.85762,-0.8383 -0.48508,-3.0434 -1.85316,-3.0434 -1.47463,0 -1.65296,1.21545 -0.36332,2.47597 0.93064,0.90967 1.67213,1.09948 2.21648,0.56743 z m -1.32923,-0.36466 c -0.92853,-0.4764 -1.61787,-1.70669 -1.19039,-2.12453 0.47887,-0.46805 0.82551,-0.35694 1.72901,0.55421 0.91634,0.92405 1.02067,1.26422 0.51355,1.67423 -0.23119,0.18676 -0.54603,0.15568 -1.05217,-0.10389 z m -88.915811,-0.96692 c -0.411201,-0.30535 -0.351666,-0.43059 0.67127,-1.41185 0.876162,-0.84051 1.192328,-1.00854 1.440721,-0.76574 0.570648,0.55774 0.334409,-0.12893 -0.255489,-0.74271 -0.642035,-0.66799 -1.270765,-0.82853 -0.724306,-0.18504 0.303181,0.35706 0.176468,0.5589 -0.951091,1.51504 -1.137924,0.96488 -1.256271,1.15558 -0.944827,1.52237 0.195818,0.2308 0.549295,0.41562 0.785496,0.41113 0.386023,-0.009 0.383826,-0.042 -0.0219,-0.3433 z m 93.040171,-1.60396 c 0.27149,-0.69147 0.17746,-1.00215 -0.16957,-0.56037 -0.29504,0.37553 -0.4491,0.31496 -1.46091,-0.57444 -0.64186,-0.56419 -1.0128,-1.06572 -0.85757,-1.15947 0.15048,-0.0909 0.27353,-0.29617 0.27353,-0.45617 0,-0.16 -0.35622,0.0426 -0.7916,0.45032 -0.79636,0.74576 -1.12908,1.49754 -0.40157,0.90739 0.32106,-0.26043 0.60749,-0.1292 1.62035,0.74218 1.36436,1.17387 1.55481,1.24318 1.78744,0.65056 z m -93.988692,-1.57463 c 0.85742,-0.80292 0.995272,-1.99235 0.274594,-2.36933 -0.941345,-0.49246 -2.964798,0.89749 -2.964798,2.03653 0,1.166 1.590351,1.36275 2.690193,0.3328 z m -2.274914,0.006 c -0.230089,-0.58607 1.371068,-2.19486 2.0845,-2.09443 0.846824,0.11913 0.786686,0.91855 -0.132217,1.75757 -0.936835,0.85542 -1.697189,0.98661 -1.952268,0.33686 z m 98.798576,-1.56724 c 0,-0.3092 -0.0769,-0.3244 -0.38364,-0.0756 -0.57666,0.4678 -2.58913,-1.15147 -2.3682,-1.90553 0.12297,-0.41965 0.0127,-0.3682 -0.51525,0.23886 -0.73406,0.84527 -0.92239,1.41155 -0.30209,0.90836 0.3192,-0.25899 0.6125,-0.12862 1.6386,0.7288 0.93754,0.7833 1.33483,0.97521 1.5902,0.76807 0.18713,-0.15194 0.34038,-0.45024 0.34038,-0.66301 z m -98.827235,-1.12406 c 1.071149,-0.91924 1.227243,-1.86436 0.381046,-2.30702 -0.705487,-0.36904 -1.892741,0.0765 -2.623678,0.98493 -0.627135,0.77928 -0.651568,1.18218 -0.104134,1.71728 0.623078,0.609 1.311788,0.49306 2.346766,-0.39519 z m -2.233685,-0.22073 c 0,-0.73576 1.319964,-1.84653 2.090583,-1.75929 0.938012,0.1062 0.959175,0.61298 0.06225,1.48972 -0.937014,0.91587 -2.152791,1.0681 -2.152791,0.26963 z m 102.85522,-0.57782 c 0.88348,-0.86359 -0.51413,-2.78547 -2.02563,-2.78547 -1.56897,0 -1.77548,1.1305 -0.41916,2.29448 0.9712,0.83349 1.90293,1.0206 2.44479,0.49099 z m -1.82124,-0.53758 c -1.71974,-1.13009 -1.09756,-2.55195 0.65373,-1.49402 1.04038,0.6285 1.35915,1.22196 0.92866,1.72898 -0.40152,0.47289 -0.53544,0.453 -1.58239,-0.23509 z M 15.711164,100.05586 c 1.639907,-0.946848 1.613968,-2.66441 -0.04028,-2.66441 -1.050095,0 -2.696813,1.515409 -2.425669,2.232252 0.363752,0.961678 1.272901,1.121018 2.465922,0.432158 z m -1.785668,0.002 c -1.207361,-0.476182 0.702026,-2.317802 2.261218,-2.180962 0.644432,0.05655 0.193934,1.163997 -0.71704,1.762615 -0.933296,0.613277 -1.002438,0.632007 -1.544178,0.418347 z M 123.1003,97.858131 c 0,-0.325784 -0.47145,-0.244687 -0.58946,0.101409 -0.0716,0.209622 -0.50983,0.07858 -1.35334,-0.404627 -0.98627,-0.56495 -1.21374,-0.818977 -1.08588,-1.212718 0.2457,-0.757002 -0.0321,-0.597087 -0.64392,0.370587 -0.59999,0.948883 -0.7388,1.588968 -0.19223,0.885868 0.31355,-0.403257 0.45317,-0.370173 1.77273,0.420048 1.27453,0.763269 1.4687,0.813172 1.76218,0.452919 0.18154,-0.222666 0.32985,-0.498742 0.32985,-0.613486 z M 12.271032,97.256267 c -0.183572,-0.216195 -0.287166,-0.428712 -0.23019,-0.472238 0.05693,-0.04348 0.666648,-0.380225 1.354867,-0.748228 1.139956,-0.609547 1.274238,-0.630639 1.5092,-0.23704 0.429046,0.718744 0.316113,-0.158674 -0.128602,-0.999268 -0.451335,-0.853081 -0.772275,-1.019047 -0.530441,-0.274292 0.125623,0.386914 -0.142351,0.652323 -1.307758,1.295195 -1.298051,0.716051 -1.433803,0.866937 -1.186414,1.318764 0.153656,0.280601 0.408459,0.510205 0.566252,0.510205 0.186093,0 0.169645,-0.138111 -0.04687,-0.393105 z M 124.75882,95.074511 c 0.0764,-0.285781 0.0313,-0.584582 -0.10006,-0.664027 -0.13138,-0.07944 -0.23908,0.03655 -0.23908,0.257665 0,0.564639 -0.43787,0.502582 -1.74765,-0.24768 -0.76263,-0.436841 -1.08526,-0.774927 -0.98447,-1.031651 0.26818,-0.683091 -0.14589,-0.402479 -0.55942,0.379067 -0.50623,0.956866 -0.51054,1.195183 -0.0153,0.792614 0.31462,-0.255225 0.65081,-0.166884 1.77138,0.465491 1.48882,0.840162 1.66063,0.844617 1.87361,0.04854 z M 10.578031,94.090421 c -0.206741,-0.636654 2.084078,-1.777625 2.648996,-1.319369 0.477172,0.387082 0.4667,0.137702 -0.03391,-0.808585 -0.416866,-0.787944 -0.826705,-1.059854 -0.55523,-0.368359 0.111085,0.282962 -0.249388,0.585999 -1.291106,1.085384 -1.4708254,0.705086 -1.6932096,1.013538 -1.128582,1.565424 0.438996,0.429084 0.535854,0.387497 0.359862,-0.154505 z M 125.95007,92.697436 c 1.01517,-0.992279 -0.50374,-2.607242 -2.32204,-2.46887 -0.86584,0.06591 -0.92351,0.126653 -0.92351,0.972966 0,0.77382 0.13188,0.967081 0.92351,1.353652 1.07943,0.527061 1.87829,0.575996 2.32204,0.142255 z m -1.77453,-0.400187 c -1.11093,-0.55429 -1.58356,-1.217848 -1.16134,-1.630535 0.38267,-0.374036 1.60501,-0.108981 2.4609,0.533687 0.52979,0.397773 0.60401,0.583286 0.37695,0.942126 -0.40434,0.639065 -0.6587,0.662536 -1.67651,0.154737 z M 10.85401,90.783953 c 1.012329,-0.469548 1.413412,-1.421547 0.869028,-2.062685 -0.861687,-1.014855 -3.9357395,0.438567 -3.4802929,1.645484 0.3525114,0.934141 1.2035796,1.070116 2.6112649,0.417201 z m -1.9419838,-0.03051 c -0.5355385,-0.179826 -0.377216,-1.05758 0.2638775,-1.462877 1.0053983,-0.635642 1.9131553,-0.747341 2.3066933,-0.283852 0.30187,0.355527 0.277953,0.492336 -0.16109,0.921478 -0.561623,0.548945 -1.883732,1.001773 -2.4094732,0.825249 z M 127.32218,89.395315 c 0.29025,-0.283712 0.52772,-0.637435 0.52772,-0.786053 0,-0.469174 -1.29483,-1.465898 -2.11179,-1.625608 -1.04906,-0.20507 -1.55379,0.01841 -1.7478,0.77406 -0.19961,0.777367 0.46091,1.554208 1.59527,1.87615 1.15943,0.329063 1.1553,0.329625 1.7366,-0.238549 z m -2.11093,-0.446531 c -0.59206,-0.292438 -0.92353,-0.641305 -0.92353,-0.971992 0,-0.676858 0.85069,-0.789222 2.103,-0.277755 0.7693,0.314186 0.95203,0.516971 0.88456,0.981655 -0.10974,0.755957 -0.87509,0.855358 -2.06403,0.268112 z M 9.9978779,87.313285 c 1.3326481,-1.024615 0.5781191,-2.525447 -1.0804388,-2.149099 -1.2727004,0.28879 -1.918443,0.832371 -1.918443,1.614951 0,0.39864 0.079208,0.802186 0.1759082,0.896748 0.3884798,0.379712 2.1521292,0.153177 2.8229736,-0.3626 z m -2.6272417,-0.07875 c -0.2764501,-0.704119 0.07987,-1.149045 1.1777955,-1.470557 1.1696939,-0.342532 1.8808323,-0.193791 1.8808323,0.393415 0,0.891974 -2.7509884,1.860766 -3.0586278,1.077142 z M 128.39499,86.291307 c 1.09181,-0.571119 0.39225,-2.075482 -1.13878,-2.448964 -2.2766,-0.555351 -3.0377,1.431956 -0.89706,2.342312 1.01593,0.432068 1.37755,0.451004 2.03584,0.106652 z m -2.19426,-0.654269 c -0.77393,-0.410397 -0.97199,-1.252372 -0.3495,-1.485844 0.52111,-0.195453 2.13743,0.272544 2.52736,0.731795 0.84899,0.99989 -0.70172,1.536795 -2.17786,0.754049 z M 6.5561984,84.268713 c -0.103778,-0.387919 0.1202764,-0.567348 1.1271617,-0.902698 1.5458227,-0.514825 1.690432,-0.517534 1.690432,-0.03169 0,0.212768 0.1061458,0.386876 0.2358173,0.386876 0.1331596,0 0.1191817,-0.449125 -0.032131,-1.031661 -0.2653517,-1.021773 -0.7067593,-1.435309 -0.6361516,-0.595968 0.026199,0.311799 -0.3533491,0.552435 -1.3349035,0.846264 -1.6456364,0.49263 -1.7610754,0.588589 -1.5372908,1.277744 0.2165689,0.667014 0.664385,0.714005 0.4870357,0.05107 z M 32.02695,84.21178 c 0.607839,-0.207116 0.830974,-0.442728 0.830974,-0.877454 0,-0.587177 -0.01477,-0.589963 -1.229335,-0.232691 -0.676136,0.198905 -1.572582,0.361629 -1.992104,0.361629 -1.534788,0 -3.11136,-1.266713 -3.11136,-2.499861 0,-0.566888 0.07427,-0.581277 3.3643,-0.651872 l 3.364299,-0.07215 -0.07771,-1.1564 c -0.156762,-2.333437 -1.567184,-3.688677 -3.838839,-3.688677 -2.871168,0 -4.514091,1.860105 -4.333873,4.906779 0.105586,1.785048 0.593785,2.646929 2.04685,3.613557 0.983828,0.654487 3.489103,0.804069 4.976776,0.297167 z m -5.501825,-5.378813 c 0,-1.186026 1.430736,-2.333357 2.909729,-2.333357 0.968939,0 2.367603,1.207182 2.367603,2.043477 0,0.506566 -0.143344,0.535665 -2.638663,0.535665 -1.49634,0 -2.638669,-0.106423 -2.638669,-0.245788 z m 32.257698,5.390484 c 0.814173,-0.221004 0.989495,-0.385588 0.989495,-0.928849 0,-0.531084 -0.09033,-0.622148 -0.461765,-0.465443 -1.300333,0.548583 -2.956872,0.719171 -4.00453,0.412364 -1.121006,-0.328291 -1.705882,-0.958216 -2.009173,-2.163946 L 53.118447,80.36831 h 3.458873 3.458871 l -0.0059,-0.967165 c -0.0076,-1.258047 -0.841065,-3.032173 -1.61473,-3.436891 -1.717023,-0.898178 -3.972271,-0.739864 -5.199109,0.364986 -2.385802,2.148571 -1.891724,6.62791 0.860257,7.799081 0.980081,0.417103 3.343855,0.464887 4.706011,0.09514 z m -5.472376,-5.725013 c 0.295453,-1.00646 1.614737,-1.998828 2.657318,-1.998828 1.276143,0 1.933075,0.395717 2.375629,1.431004 0.205417,0.480515 0.37346,0.93541 0.37346,1.010896 0,0.07545 -1.254771,0.137242 -2.788383,0.137242 -2.766216,0 -2.787025,-0.0048 -2.618024,-0.580314 z m 15.103505,5.833927 c 0.414167,-0.108494 0.593696,-0.349747 0.593696,-0.797808 0,-0.499257 -0.100188,-0.604723 -0.449835,-0.473574 -1.162033,0.435851 -2.653176,0.447576 -3.484477,0.02734 -2.21285,-1.118493 -2.092635,-5.503768 0.174356,-6.359727 0.724691,-0.273636 2.42575,-0.192691 3.29821,0.156962 0.369596,0.148111 0.461766,0.05184 0.461766,-0.482416 0,-0.504318 -0.161217,-0.700183 -0.659667,-0.801337 -0.362815,-0.07361 -0.960961,-0.195197 -1.32922,-0.270153 -1.051264,-0.213996 -2.813131,0.363448 -3.732093,1.223195 -2.074066,1.940408 -1.654585,5.980056 0.771076,7.425631 0.865599,0.515849 3.05503,0.692705 4.356206,0.351871 z m 43.274138,0 c 0.41415,-0.108494 0.5937,-0.349747 0.5937,-0.797808 0,-0.509086 -0.0957,-0.604567 -0.46179,-0.460335 -1.01662,0.40061 -2.36807,0.425651 -3.26228,0.06043 -2.30399,-0.940945 -2.4452,-5.130506 -0.21107,-6.259793 0.84196,-0.425574 2.39654,-0.420787 3.4733,0.01074 0.36959,0.148111 0.46176,0.05176 0.46176,-0.482416 0,-0.504315 -0.16117,-0.700178 -0.65966,-0.801333 -0.36282,-0.07361 -0.96097,-0.195198 -1.32923,-0.270157 -0.9337,-0.190082 -2.77283,0.332424 -3.51142,0.997571 -1.04404,0.940225 -1.45149,1.988631 -1.43866,3.701727 0.0204,2.840247 1.57969,4.46686 4.27336,4.460435 0.81301,-0.0019 1.74538,-0.0735 2.07192,-0.159057 z M 20.403263,83.470348 c 1.65649,-0.923056 2.23147,-1.996243 2.375875,-4.434477 0.27545,-4.650811 -1.706716,-6.404917 -7.23765,-6.404917 h -2.737425 v 5.829575 5.829559 l 3.232359,-0.09378 c 2.843767,-0.08256 3.36876,-0.169774 4.366841,-0.725963 z M 14.387262,78.4037 v -4.801701 l 2.044965,0.181232 c 3.245685,0.287654 4.545346,1.340351 4.758646,3.854373 0.169059,1.992715 -0.10943,3.120051 -1.021587,4.135507 -0.85422,0.95095 -2.402645,1.432281 -4.607612,1.432281 h -1.174412 z m 22.956395,-0.227629 v -6.060955 h -0.7916 -0.791599 v 6.060955 6.060961 h 0.791599 0.7916 z m 11.874,0.902704 v -5.158268 h 2.110931 c 2.07575,0 2.110932,-0.01074 2.110932,-0.644785 v -0.644785 h -5.013462 -5.01347 v 0.644785 c 0,0.63403 0.03519,0.644785 2.110934,0.644785 h 2.110934 v 5.158268 5.158257 h 0.791602 0.791599 z m 24.011866,2.043461 c 0,-3.098788 0.0038,-3.118675 0.771295,-3.868697 0.549636,-0.537237 1.0236,-0.751546 1.64917,-0.745696 1.839871,0.01739 2.312479,1.078148 2.322828,5.214542 l 0.0059,2.514647 h 0.680107 0.680112 l -0.08639,-3.463951 c -0.09892,-3.96659 -0.389783,-4.655807 -2.21671,-5.253214 -0.877965,-0.287106 -1.185419,-0.274875 -2.150548,0.08537 -0.619378,0.231182 -1.241776,0.614068 -1.383124,0.850809 -0.180287,0.30198 -0.259373,-0.281551 -0.264998,-1.955255 l -0.0079,-2.385694 h -0.791602 -0.791597 v 6.060956 6.060963 h 0.791597 0.791602 z m 15.569796,1.696273 0.439689,-1.289561 h 2.843195 2.843207 l 0.516751,1.354044 c 0.461959,1.210453 0.59876,1.35404 1.289942,1.35404 0.42522,0 0.772912,-0.02903 0.772606,-0.06443 -2.54e-4,-0.03547 -0.994292,-2.617817 -2.208871,-5.738569 L 93.087502,72.759937 H 92.095987 91.10447 l -2.208341,5.674099 c -1.214582,3.120752 -2.208581,5.710459 -2.208882,5.75491 -2.57e-4,0.04445 0.37588,0.04445 0.83593,0 0.746035,-0.07202 0.883999,-0.220236 1.276142,-1.370391 z m 1.053799,-2.827914 c 0,-0.289502 2.190232,-5.820628 2.272887,-5.739849 0.110882,0.108367 2.212841,5.555274 2.212841,5.734215 0,0.069 -1.009289,0.125477 -2.242859,0.125477 -1.23358,0 -2.242869,-0.05389 -2.242869,-0.119825 z m 10.824842,1.989704 c 0.0127,-4.109288 0.6549,-5.351706 2.77163,-5.351706 1.03706,0 1.18005,-0.06824 1.18005,-0.562924 0,-0.312379 -0.20827,-0.627508 -0.46782,-0.708048 -0.67677,-0.209954 -2.1569,0.265553 -2.87276,0.922904 l -0.61742,0.566947 v -0.689743 c 0,-0.563779 -0.12043,-0.689742 -0.65966,-0.689742 h -0.659662 v 4.384531 4.384516 h 0.659662 c 0.65289,0 0.65974,-0.02301 0.66598,-2.256735 z m 15.87013,-0.940924 c 0.098,-3.582053 0.34143,-4.135656 1.94784,-4.43023 2.16356,-0.39673 2.7573,0.633156 2.7573,4.782567 v 2.845322 h 0.65969 0.65966 V 81.30328 c 0,-1.613573 -0.0738,-3.294814 -0.16422,-3.73608 -0.45557,-2.226472 -3.46607,-2.959075 -5.28736,-1.286675 l -0.61742,0.566947 v -2.366177 -2.366177 h -0.7916 -0.7916 v 6.060956 6.06096 h 0.77009 0.77008 z m 11.40971,1.00833 c 1.80313,0.534457 2.00809,0.500655 1.97242,-0.325317 -0.0204,-0.480338 -0.071,-0.555747 -0.15607,-0.233638 -0.10363,0.392704 -0.2872,0.44598 -1.05303,0.305538 -1.5857,-0.29077 -2.19429,-0.600518 -2.02535,-1.030819 0.0853,-0.21732 0.0229,-0.395134 -0.13698,-0.395134 -0.16066,0 -0.29209,0.101563 -0.29209,0.225659 0,0.124121 -0.0738,0.617383 -0.16397,1.09613 -0.14512,0.770367 -0.12246,0.818903 0.19783,0.422038 0.33362,-0.413314 0.46336,-0.418363 1.65724,-0.06443 z M 7.9050391,80.845037 c 1.4319317,-0.637722 1.0481443,-2.282086 -0.5326283,-2.282086 -1.9073167,0 -3.1541439,1.30545 -2.167701,2.269635 0.4017372,0.392676 1.8317543,0.399264 2.7003293,0.01228 z M 5.4817658,80.590017 C 5.0726068,80.187057 5.057231,79.682251 5.446961,79.446839 5.9474502,79.1445 7.5708975,78.853602 7.9545856,78.997512 c 0.4538477,0.170234 0.4742316,0.960538 0.033914,1.316169 -0.5680721,0.458844 -2.1449086,0.63267 -2.5067259,0.276344 z M 43.940323,79.981473 c 0,-0.634041 -0.03519,-0.644786 -2.110934,-0.644786 -2.07575,0 -2.110931,0.01074 -2.110931,0.644786 0,0.634033 0.03519,0.644785 2.110931,0.644785 2.075752,0 2.110934,-0.01074 2.110934,-0.644785 z m 41.954798,0 c 0,-0.634041 -0.03521,-0.644786 -2.110939,-0.644786 -2.07575,0 -2.110934,0.01074 -2.110934,0.644786 0,0.634033 0.03521,0.644785 2.110934,0.644785 2.075752,0 2.110939,-0.01074 2.110939,-0.644785 z M 128.90538,78.72433 c 1.92363,0.440849 1.8514,0.454964 1.81644,-0.354814 -0.0204,-0.476606 -0.0715,-0.553946 -0.15556,-0.235761 -0.0886,0.335049 -0.29168,0.434458 -0.69503,0.34 -0.31347,-0.0734 -1.01884,-0.213024 -1.56747,-0.310226 -0.82197,-0.145631 -0.96974,-0.262184 -0.83979,-0.662392 0.0871,-0.268542 0.0318,-0.485661 -0.124,-0.485661 -0.1548,0 -0.28327,0.203101 -0.28523,0.451348 -0.002,0.248268 -0.0703,0.741504 -0.15149,1.096133 -0.12884,0.561459 -0.10287,0.59206 0.20139,0.236784 0.3066,-0.358031 0.52716,-0.36726 1.80066,-0.07545 z M 4.7674268,77.308162 c -0.1285767,-0.395929 0.020114,-0.509523 0.8397891,-0.641946 1.6205092,-0.261783 2.1365727,-0.196911 2.2653531,0.284772 0.066427,0.248268 0.126107,0.103175 0.1327522,-0.322392 0.00713,-0.425555 -0.089953,-1.005857 -0.2147103,-1.289561 -0.2205408,-0.501666 -0.2272879,-0.50065 -0.2452887,0.03696 -0.015786,0.471272 -0.2574309,0.593882 -1.6391235,0.831768 -0.8913089,0.153457 -1.6727445,0.330017 -1.7365032,0.392333 -0.1364695,0.13338 0.4082831,1.189159 0.613545,1.189159 0.077197,0 0.070093,-0.216451 -0.015786,-0.481047 z M 131.1294,75.836443 c 0.68441,-0.668958 0.48479,-1.341065 -0.55752,-1.877319 -0.75282,-0.387315 -2.2672,-0.379954 -2.6692,0.01305 -0.50379,0.492434 -0.36821,1.431339 0.26978,1.868137 0.75736,0.518488 2.42478,0.516344 2.95691,-0.0041 z m -2.00682,-0.03683 c -0.84596,-0.124914 -1.38977,-0.692929 -1.17853,-1.230994 0.17899,-0.455802 1.77895,-0.532723 2.56186,-0.123174 0.51143,0.267537 0.72352,1.280496 0.2681,1.280496 -0.13315,0 -0.40042,0.04005 -0.59369,0.089 -0.19325,0.04893 -0.66928,0.04202 -1.05774,-0.01535 z M 6.6764214,72.229467 C 7.3144291,71.792675 7.4500278,70.853758 6.9462185,70.361323 6.420648,69.847617 4.4346016,69.979222 3.8325878,70.567645 c -0.2902574,0.283711 -0.5277274,0.631888 -0.5277274,0.773741 0,0.141845 0.2374723,0.490026 0.5277274,0.773737 0.6370274,0.622648 2.0201332,0.67825 2.8438259,0.114326 z M 4.0085087,71.943195 c -0.3261749,-0.318811 -0.1791162,-1.061241 0.2414695,-1.218982 0.229554,-0.08607 0.8863517,-0.156552 1.459544,-0.156552 1.1400041,0 1.5830208,0.504121 1.0228135,1.163886 -0.3285784,0.386984 -2.3812631,0.546479 -2.7238321,0.211643 z M 131.65712,70.678193 c 0.51983,-0.508101 0.53279,-1.241094 0.029,-1.649619 -0.56455,-0.457965 -2.35301,-0.628204 -3.00676,-0.286212 -0.74611,0.390286 -0.73511,1.422208 0.0204,1.939627 0.75733,0.518482 2.42476,0.516337 2.95691,-0.0041 z m -3.01282,-0.494139 c -0.58081,-0.68403 -0.11661,-1.16389 1.1259,-1.16389 1.46168,0 2.307,0.532665 1.79755,1.132697 -0.45725,0.538524 -2.47442,0.560037 -2.92345,0.0312 z M 5.2828666,67.988504 c 1.1243789,0 1.4382638,0.09231 1.5342431,0.451347 0.066427,0.248269 0.1206839,-0.07097 0.1206839,-0.709255 0,-0.638332 -0.054359,-0.957508 -0.1206839,-0.70926 -0.09395,0.351511 -0.4034354,0.451348 -1.3990798,0.451348 -1.5902415,0 -2.1131618,0.187652 -2.1131618,0.758351 0,0.675293 0.3840397,0.913494 0.4801183,0.297786 0.073505,-0.47098 0.2657031,-0.540317 1.4978802,-0.540317 z M 130.37599,66.698946 c 1.63292,0 1.69578,-0.02379 1.69578,-0.644785 0,-0.354629 -0.13137,-0.644784 -0.29211,-0.644784 -0.16065,0 -0.2238,0.174098 -0.14029,0.386865 0.12451,0.316923 -0.12934,0.386874 -1.4037,0.386874 -1.25962,0 -1.57851,-0.08586 -1.67623,-0.451349 -0.0665,-0.248216 -0.12068,0.07097 -0.12068,0.709259 0,0.638343 0.0542,0.957507 0.12068,0.709268 0.099,-0.370801 0.42331,-0.451348 1.81645,-0.451348 z M 66.118466,64.538867 c 0.129697,-0.301402 1.311213,-5.654698 2.62559,-11.896201 1.314389,-6.241496 2.623842,-12.419715 2.909896,-13.729373 0.286049,-1.309664 0.520099,-2.651499 0.520099,-2.981856 0,-1.496567 -2.264222,-2.330637 -3.297465,-1.214677 -0.322304,0.348107 -0.92399,2.582805 -1.857584,6.899176 -3.123097,14.439276 -4.637084,22.097644 -4.485327,22.688651 0.351106,1.367348 3.02214,1.541925 3.584791,0.234277 z M 3.7404276,65.030768 c -0.2218903,-0.565213 0.1944945,-0.691761 1.653598,-0.502574 0.8898728,0.1154 1.3518272,0.30618 1.4292991,0.590313 0.062914,0.230903 0.1144714,-0.102458 0.1144714,-0.74078 0,-0.638342 -0.054359,-0.957508 -0.1206838,-0.709268 -0.099119,0.370798 -0.4232999,0.451348 -1.816455,0.451348 -1.6329267,0 -1.6957867,0.02379 -1.6957867,0.644785 0,0.354629 0.1314538,0.644785 0.2921138,0.644785 0.1606572,0 0.2252001,-0.170388 0.1434712,-0.378609 z M 131.48534,63.71832 c 1.30865,-0.895949 0.11482,-2.379588 -1.6851,-2.094105 -1.61388,0.256 -2.18616,1.196576 -1.27181,2.090305 0.53215,0.520134 2.19958,0.522283 2.95691,0.0041 z m -2.9619,-0.558878 c -0.2406,-0.613063 0.52301,-1.102934 1.71939,-1.102934 1.16745,0 1.80432,0.568057 1.30122,1.160604 -0.48566,0.571977 -2.79067,0.527966 -3.02061,-0.0577 z M 6.5907842,62.015105 c 0.4876239,-0.217141 0.6720843,-0.497811 0.6720843,-1.02258 0,-0.901565 -0.6269781,-1.257235 -2.2162393,-1.257235 -0.9327869,0 -1.2586919,0.115476 -1.4832301,0.525565 -0.4274095,0.780612 -0.069304,1.500896 0.8796708,1.769256 1.1619207,0.3286 1.3795896,0.327078 2.1477143,-0.01509 z M 4.1100333,61.345358 C 3.5280622,60.884742 3.5229777,60.848508 3.9778667,60.403876 4.347862,60.04223 4.6855146,59.978061 5.527091,60.109471 c 1.328938,0.2075 1.6912264,0.516767 1.3073168,1.115912 -0.409844,0.639616 -1.9804501,0.708787 -2.724377,0.119978 z m 51.0031097,0.682705 c 0.657159,-0.292671 1.228913,-1.20803 1.228913,-1.96746 0,-0.233305 -2.254742,-2.63859 -5.010534,-5.345114 l -5.010535,-4.920967 4.73673,-4.624501 c 2.605198,-2.543473 4.865301,-4.927898 5.022444,-5.298724 0.600838,-1.417812 -0.712276,-2.844528 -2.267008,-2.46312 -0.453549,0.111281 -2.857389,2.260567 -6.484191,5.797574 -5.268805,5.138365 -5.763438,5.696605 -5.763438,6.504607 0,0.80934 0.507201,1.377906 6.016108,6.74396 3.308859,3.223057 6.2124,5.860098 6.452319,5.860098 0.239917,0 0.72555,-0.128852 1.079192,-0.286353 z m 32.681868,-5.573745 c 5.260156,-5.123761 6.01611,-5.960469 6.01611,-6.658927 0,-0.677742 -0.584222,-1.393131 -3.854594,-4.720001 -4.950732,-5.036257 -8.094442,-7.778555 -8.91717,-7.778555 -1.041511,0 -1.846452,0.83329 -1.846452,1.911477 0,0.883919 0.325225,1.264506 4.934376,5.774343 l 4.934365,4.828069 -4.88458,4.76884 c -2.686524,2.622867 -4.953395,4.980517 -5.037486,5.239214 -0.354269,1.089788 0.797504,2.433163 2.124726,2.478183 0.33147,0.01125 2.655518,-2.067951 6.530705,-5.842643 z m 43.097829,3.938916 c 0.67629,-0.276199 0.91506,-0.531943 0.91506,-0.980073 0,-0.881526 -0.48785,-1.225352 -1.73866,-1.225352 -1.46206,0 -2.36543,0.6855 -2.12699,1.614038 0.24977,0.972323 1.43575,1.210043 2.95059,0.591387 z m -2.51519,-0.528991 c -0.45702,-0.538231 0.0326,-1.060785 1.19309,-1.273602 0.8996,-0.16494 1.97331,0.172128 1.97331,0.619468 0,0.930312 -2.49439,1.445613 -3.1664,0.654134 z M 7.7559054,57.027194 c 0.016804,-0.479101 -0.00713,-0.484178 -0.3275065,-0.07136 -0.3001947,0.38632 -0.5495163,0.41184 -1.9046356,0.194941 -0.8575811,-0.137267 -1.588915,-0.250237 -1.625194,-0.251081 -0.036307,-8.21e-4 -0.066045,0.288665 -0.066045,0.643292 0,0.354628 0.1150316,0.644785 0.2555748,0.644785 0.1405942,0 0.1819933,-0.187396 0.092066,-0.416431 -0.143293,-0.364969 0.01273,-0.393197 1.2616454,-0.228421 1.6832088,0.222053 1.8127657,0.281896 1.8472395,0.853505 0.033201,0.551499 0.4416393,-0.646586 0.4667283,-1.369266 z M 129.56972,56.249429 c 1.68278,-0.286731 1.92924,-0.531554 1.30456,-1.295974 -0.40439,-0.494833 -0.40971,-0.493564 -0.25435,0.06084 0.1385,0.493927 0.0308,0.587329 -0.84392,0.731785 -0.55148,0.09105 -1.20167,0.218549 -1.44488,0.283336 -0.2462,0.0655 -0.56428,-0.08734 -0.71761,-0.34491 -0.32263,-0.541934 -0.36075,-0.220824 -0.11584,0.976028 0.14487,0.707651 0.20725,0.769929 0.35512,0.354638 0.13316,-0.373967 0.57559,-0.571246 1.7168,-0.765697 z M 8.2691708,53.803282 c -0.00891,-0.458611 -0.048172,-0.508074 -0.1371061,-0.171283 -0.09395,0.355659 -0.2833397,0.434648 -0.7611688,0.317427 -0.3498686,-0.08586 -1.1703788,-0.227627 -1.8233549,-0.315108 -1.1479326,-0.15379 -1.1872185,-0.136551 -1.1872185,0.52078 0,0.37391 0.1187488,0.679839 0.2638495,0.679839 0.1451517,0 0.2638801,-0.212385 0.2638801,-0.471906 0,-0.431229 0.1250886,-0.449739 1.4512692,-0.214788 1.1999438,0.212589 1.4544646,0.350135 1.4698021,0.794296 0.018332,0.528427 0.022405,0.528766 0.2453396,0.02123 0.1247066,-0.283709 0.2213301,-0.805984 0.2147103,-1.160616 z M 128.91714,52.810748 c 1.57816,-0.31861 1.70676,-0.426002 1.41126,-1.178637 -0.22456,-0.571978 -0.60966,-0.511289 -0.45373,0.07153 0.0983,0.367517 -0.0542,0.515158 -0.65358,0.632317 -0.43003,0.08402 -1.0926,0.229061 -1.47234,0.322226 -0.53033,0.130106 -0.69045,0.0732 -0.69045,-0.245454 0,-0.228139 -0.12679,-0.414822 -0.28165,-0.414822 -0.26519,0 -0.22838,0.272516 0.22686,1.676436 0.16499,0.508771 0.16855,0.508554 0.25466,-0.01535 0.0695,-0.422122 0.40979,-0.59616 1.65887,-0.848331 z M 8.8432211,51.614368 C 9.3396264,51.02973 8.951582,50.039887 8.0891099,49.690701 6.4431731,49.024304 4.6194491,49.819348 5.3111203,50.901758 c 0.6531849,1.022184 2.8866433,1.472793 3.5321008,0.71261 z M 6.834283,51.459838 C 5.649333,51.124035 5.2095167,50.541507 5.7454218,50.017694 6.2873,49.488035 7.7948603,49.742531 8.4765,50.47875 8.9601928,51.001159 8.9598745,51.020764 8.462497,51.376405 7.8936127,51.783 7.9623948,51.779473 6.8344922,51.459862 Z M 128.09458,49.423259 c 1.46147,-0.342688 1.68682,-0.520997 1.44309,-1.141841 -0.21133,-0.53834 -0.67774,-0.530823 -0.57788,0.0097 0.0563,0.30388 -0.28229,0.523345 -1.22833,0.796501 -1.21578,0.35102 -1.33129,0.344324 -1.67483,-0.09709 -0.33087,-0.425094 -0.3495,-0.380801 -0.18027,0.428597 0.2595,1.241726 0.44226,1.470479 0.67774,0.848252 0.13902,-0.367575 0.61027,-0.625611 1.54058,-0.843761 z M 9.9015294,48.129194 c 0.5845986,-1.067687 -0.5443835,-2.063309 -2.3396679,-2.063309 -1.1288294,0 -1.5554901,0.522087 -1.2345016,1.510595 0.3476459,1.070621 3.0608608,1.490188 3.5741695,0.552714 z M 7.5275074,47.940569 C 5.6377229,47.006359 6.6963495,45.86998 8.695722,46.686531 c 0.7791645,0.31821 0.9626574,0.520322 0.895049,0.985931 -0.1097612,0.755929 -0.8752304,0.8554 -2.0632636,0.268112 z M 128.00974,46.716505 c 0.68003,-0.435519 0.83733,-1.378188 0.31513,-1.888608 -0.42109,-0.411585 -1.34751,-0.391117 -2.437,0.05381 -1.11205,0.454154 -1.43163,1.28494 -0.76945,2.000144 0.55276,0.597012 1.81355,0.524897 2.89132,-0.165375 z m -2.79849,-0.386768 c 0,-0.907297 1.95279,-1.782948 2.73283,-1.225436 0.92326,0.659875 -0.2875,1.735319 -1.95365,1.735319 -0.60024,0 -0.77918,-0.117087 -0.77918,-0.509883 z M 11.465152,43.50588 c 0.766655,-0.749362 0.414162,-1.539107 -0.950302,-2.129048 -1.3484355,-0.583023 -2.1296521,-0.432566 -2.3573042,0.454018 -0.1933742,0.753006 0.2465363,1.345033 1.3480769,1.814269 1.0782033,0.459302 1.3682543,0.438695 1.9595293,-0.139262 z M 9.1579081,42.963049 c -1.2098048,-0.720946 -1.0493614,-1.421938 0.3156417,-1.379075 1.1423162,0.03588 2.1803092,0.842032 1.9241922,1.49442 -0.219981,0.560351 -1.189785,0.510401 -2.2398339,-0.115347 z M 125.18684,41.200373 c 1.46796,-0.617256 1.53816,-0.726919 0.93985,-1.46856 -0.39123,-0.484968 -0.40156,-0.481137 -0.32984,0.122253 0.0626,0.526419 -0.12374,0.702677 -1.20325,1.13795 -1.0637,0.4289 -1.31505,0.455384 -1.50289,0.158291 -0.41311,-0.653333 -0.44852,-0.126474 -0.053,0.788938 0.35624,0.824557 0.40798,0.856099 0.59771,0.364414 0.1189,-0.308333 0.78172,-0.779655 1.55143,-1.103307 z M 13.276021,39.811472 c 0.169568,-0.390091 0.202031,-0.709256 0.0721,-0.709256 -0.129926,0 -0.279599,0.127216 -0.332626,0.282674 -0.05993,0.17563 -0.665001,0.0099 -1.597809,-0.437057 -0.825778,-0.395863 -1.5493512,-0.668152 -1.6079414,-0.605083 -0.058636,0.06307 -0.1868054,0.404832 -0.2849005,0.759461 -0.1645527,0.594807 -0.1488943,0.60899 0.2020309,0.182998 0.363633,-0.441443 0.434021,-0.436335 1.596864,0.115885 0.843768,0.400679 1.216455,0.735763 1.216455,1.093688 0,0.603521 0.295866,0.328784 0.73583,-0.68329 z M 123.8972,38.970589 c 1.01924,-0.515186 1.42106,-1.254291 1.05018,-1.931684 -0.43869,-0.801196 -1.90558,-0.687889 -2.95457,0.228242 -0.77561,0.677382 -0.82378,0.804475 -0.53755,1.418526 0.36692,0.787132 1.24554,0.889651 2.44194,0.284916 z m -2.01005,-0.227884 c -0.25692,-0.654397 0.069,-1.154912 1.04911,-1.611805 1.0419,-0.485643 1.74727,-0.329784 1.74727,0.386085 0,0.933809 -2.48359,2.022435 -2.79638,1.22572 z M 14.776286,37.051719 c 0.505785,-0.956007 0.510562,-1.195231 0.01579,-0.793927 -0.312154,0.253203 -0.671089,0.163099 -1.861974,-0.467334 l -1.475281,-0.781022 -0.217969,0.56339 c -0.119895,0.309865 -0.145635,0.679449 -0.05724,0.821299 0.08835,0.141871 0.201904,0.05479 0.252214,-0.193433 0.120659,-0.595083 0.29023,-0.573637 1.743991,0.220543 0.993445,0.542714 1.171181,0.741065 0.924462,1.031651 -0.213514,0.25144 -0.218326,0.359746 -0.0163,0.359746 0.159155,0 0.47055,-0.342413 0.691969,-0.760931 z M 122.47122,35.835001 c 1.30962,-0.838731 1.02398,-2.406865 -0.43843,-2.406865 -0.9653,0 -2.36273,1.150058 -2.36273,1.944453 0,1.155322 1.36693,1.380968 2.80116,0.462412 z m -2.44566,-0.224226 c -0.19604,-0.49942 0.49987,-1.265324 1.52798,-1.681571 0.67692,-0.274069 0.85342,-0.256802 1.23428,0.120898 0.41731,0.41379 0.39182,0.486965 -0.4173,1.198925 -0.93155,0.819679 -2.09473,0.999132 -2.34496,0.361761 z M 17.024619,33.332056 c 7.05e-4,-0.123762 -0.175348,-0.08169 -0.39123,0.09338 -0.320904,0.260315 -0.626066,0.171949 -1.672265,-0.484246 -1.499757,-0.940683 -1.783664,-0.982022 -1.96965,-0.286844 -0.146297,0.546808 0.221916,0.734066 0.402458,0.20466 0.07081,-0.207499 0.516598,-0.05732 1.338333,0.450811 0.960531,0.59397 1.200909,0.87583 1.090198,1.27834 -0.107648,0.391262 0.02062,0.328914 0.529405,-0.257378 0.369285,-0.425552 0.672023,-0.875002 0.672751,-0.998757 z M 120.7458,32.67422 c 0.42422,-0.414646 0.7713,-0.928635 0.7713,-1.142193 0,-0.506306 -0.71692,-1.198865 -1.24105,-1.198865 -0.64721,0 -2.14499,1.00502 -2.32531,1.560281 -0.52887,1.628778 1.38153,2.162434 2.79506,0.780777 z m -2.57935,0.06882 c -0.21973,-0.559966 1.28691,-1.894056 2.13921,-1.894056 1.22451,0 1.03505,0.985759 -0.3645,1.896622 -0.83435,0.543007 -1.56094,0.541961 -1.77471,-0.0028 z M 18.292482,31.57116 c 0.583229,-0.570067 0.350749,-1.44423 -0.565829,-2.127559 -1.091028,-0.813391 -2.155276,-0.858963 -2.565441,-0.10985 -0.733063,1.338823 2.030414,3.313418 3.13127,2.237399 z M 16.47125,31.033575 c -1.719737,-1.130075 -1.097566,-2.551941 0.653728,-1.494006 1.040391,0.628491 1.359157,1.221981 0.928654,1.728987 -0.40151,0.472883 -0.535434,0.452984 -1.582382,-0.234994 z m 101.17119,-0.474714 c 1.54934,-0.779958 2.19981,-2.017522 1.44711,-2.753236 -0.54185,-0.529623 -1.47359,-0.342513 -2.44479,0.490963 -1.03235,0.885969 -1.14904,1.375458 -0.49602,2.080756 0.50911,0.549852 0.71282,0.574613 1.4937,0.181517 z m -1.506,-0.632744 c -0.25155,-0.64087 1.25839,-1.967314 2.12543,-1.867057 1.0205,0.118008 1.04886,0.623826 0.0843,1.504491 -0.91727,0.837531 -1.95638,1.008019 -2.20976,0.362566 z M 21.101933,27.783418 c -0.05795,-0.05654 -0.263732,0.0256 -0.457427,0.182792 -0.27065,0.219572 -0.651102,0.04427 -1.643724,-0.75752 -1.197958,-0.967604 -1.316307,-1.010105 -1.633207,-0.586499 -0.449018,0.600213 -0.428265,1.13596 0.02139,0.557 0.319703,-0.411464 0.431778,-0.374495 1.451728,0.478847 0.855047,0.715381 1.069837,1.049889 0.948712,1.47754 -0.118418,0.418066 0.03529,0.333184 0.63052,-0.348245 0.432893,-0.495572 0.739708,-0.947339 0.681828,-1.003926 z m 93.605517,0.159493 c -0.22201,-0.261525 0.0204,-0.598475 1.05232,-1.468072 1.24366,-1.047101 1.30578,-1.153462 0.85984,-1.4722 -0.65457,-0.467832 -1.04906,-0.434102 -0.63441,0.05419 0.19452,0.229188 0.23628,0.476013 0.0983,0.582305 -0.13163,0.101461 -0.62111,0.52047 -1.08753,0.93109 -0.70921,0.62437 -0.91437,0.692751 -1.25336,0.417764 -0.67269,-0.545696 -0.45523,0.0421 0.30105,0.813674 0.6878,0.701695 1.23933,0.819001 0.66379,0.141181 z M 22.612315,26.295544 c 0.692631,-0.612684 0.597881,-1.226144 -0.329353,-2.132449 -0.966901,-0.945086 -2.18218,-1.074384 -2.617938,-0.278559 -0.366115,0.668655 0.138557,1.648885 1.201578,2.333812 0.949174,0.611562 1.132432,0.619675 1.745713,0.07722 z m -1.885772,-0.768019 c -0.90201,-0.741867 -1.00493,-1.702752 -0.198492,-1.853007 0.638367,-0.118929 2.356281,1.580212 2.144102,2.120685 -0.23844,0.607364 -1.010898,0.501091 -1.945618,-0.26768 z m 91.705637,-0.01176 c -0.11763,-0.299887 0.20267,-0.802522 1.04315,-1.636593 l 1.21305,-1.203811 -0.67557,-0.432662 c -0.66172,-0.4238 -0.93291,-0.259652 -0.41208,0.249419 0.17542,0.171411 -0.0853,0.590449 -0.77986,1.253304 -0.88179,0.841641 -1.1064,0.944606 -1.45086,0.665173 -0.67562,-0.54806 -0.45811,0.03957 0.30148,0.814568 0.81452,0.830998 1.00081,0.902158 0.76069,0.290563 z M 25.15302,23.833643 c 0.544869,-0.532581 0.348375,-1.425202 -0.495259,-2.249798 -0.843631,-0.824603 -1.756857,-1.016665 -2.301729,-0.484091 -0.549677,0.537276 -0.345762,1.406866 0.525051,2.239035 0.87674,0.83783 1.730729,1.023836 2.271937,0.494854 z m -1.952613,-0.825325 c -1.000083,-0.977521 -1.076388,-1.235752 -0.502669,-1.701158 0.802884,-0.651305 2.909423,1.407714 2.243093,2.192481 -0.476146,0.560775 -0.740342,0.486195 -1.740424,-0.491323 z m 87.878083,-0.446535 c 1.45426,-1.118113 1.40861,-2.803174 -0.0759,-2.803174 -1.44171,0 -2.74161,2.156616 -1.83437,3.043372 0.46861,0.458039 1.10653,0.377832 1.91035,-0.240185 z m -1.65999,-0.0309 c -0.47072,-0.460082 -0.36656,-0.845914 0.46242,-1.713319 0.83529,-0.874027 1.53599,-1.029809 1.78454,-0.39674 0.38015,0.968306 -1.55545,2.785981 -2.24696,2.110059 z M 28.945117,20.36344 c 0.714795,-0.632287 0.590348,-1.324756 -0.414603,-2.307035 -0.930661,-0.909664 -1.672138,-1.099475 -2.216486,-0.567415 -0.574015,0.561071 -0.3443,1.520438 0.58051,2.424391 1.009841,0.987054 1.357301,1.063311 2.050579,0.450059 z m -1.288565,-0.256545 c -0.175908,-0.06977 -0.573582,-0.528111 -0.883699,-1.018568 -0.453623,-0.717416 -0.50084,-0.965948 -0.24152,-1.271329 0.466631,-0.549576 0.745042,-0.476382 1.603086,0.421431 1.221186,1.277782 0.927593,2.425795 -0.477844,1.868466 z m 79.637838,-1.149277 c 0.92302,-0.96581 1.02751,-2.138748 0.22787,-2.557077 -0.71848,-0.375832 -1.45312,-0.114479 -2.05119,0.729726 -0.75237,1.062053 -0.83652,1.488741 -0.41071,2.082923 0.55066,0.768477 1.34188,0.677955 2.23408,-0.255557 z m -1.80718,0.372281 c -0.92652,-0.365416 0.55509,-2.763842 1.61553,-2.615203 0.85202,0.119415 0.80927,0.83357 -0.11126,1.8583 -0.84935,0.945546 -0.927,0.984605 -1.5043,0.756903 z M 31.934392,18.068225 c 0.671754,-0.556927 0.703964,-0.632893 0.212776,-0.501774 -0.470214,0.125528 -0.764642,-0.0888 -1.569066,-1.141945 -0.931346,-1.219357 -1.018541,-1.27142 -1.466136,-0.875491 -0.261759,0.231541 -0.475899,0.542249 -0.475899,0.690483 0,0.165196 0.122542,0.149749 0.31664,-0.03997 0.48174,-0.470862 0.627795,-0.396387 1.502509,0.766206 0.615039,0.817447 0.739456,1.158002 0.518253,1.418523 -0.492602,0.580158 0.124936,0.377057 0.960931,-0.316026 z m 72.549888,-1.23536 c 1.13619,-1.455998 0.6961,-3.003984 -0.75295,-2.648496 -0.70113,0.171999 -1.74034,1.601385 -1.74034,2.39378 0,1.341273 1.52393,1.496958 2.49329,0.254713 z m -1.94983,0.236324 c -0.38789,-0.456826 0.20471,-1.713202 1.09565,-2.323219 0.49987,-0.34222 0.64077,-0.348787 0.95216,-0.04445 0.45279,0.442573 0.23831,1.169591 -0.60813,2.06243 -0.72851,0.768341 -0.99794,0.825463 -1.43968,0.305197 z M 34.653023,16.24846 c 0.688478,-0.475144 0.806071,-0.63536 0.399657,-0.544539 -0.465949,0.104146 -0.756011,-0.136552 -1.519927,-1.261115 -0.519246,-0.764403 -0.983838,-1.389819 -1.032427,-1.389819 -0.04858,0 -0.314542,0.247526 -0.591005,0.550105 -0.497839,0.544818 -0.497082,0.548406 0.07893,0.373245 0.482878,-0.146858 0.701306,0.0087 1.286918,0.915251 0.571334,0.884623 0.648401,1.181204 0.405676,1.561097 -0.40771,0.638118 -0.178658,0.590002 0.972175,-0.204225 z m 66.610097,-1.06769 c 1.30346,-1.339421 1.19334,-2.901522 -0.20445,-2.901522 -1.383663,0 -2.608528,2.705892 -1.508369,3.332212 0.707119,0.402569 0.965169,0.337687 1.712919,-0.43069 z m -1.80626,-0.170159 c -0.164477,-0.418642 0.459311,-1.709714 1.06209,-2.198697 0.5705,-0.462801 1.20817,-0.154021 1.20817,0.585066 0,1.304807 -1.869738,2.633778 -2.27026,1.613631 z M 37.554751,14.548882 c 0.471337,-0.460705 0.382067,-1.516794 -0.208217,-2.463071 -1.015084,-1.627296 -3.005418,-0.799844 -2.326434,0.967176 0.556643,1.448626 1.820111,2.194302 2.534639,1.495895 z m -1.517008,-0.635106 c -0.709092,-0.881123 -0.955455,-1.848564 -0.567344,-2.227913 0.427651,-0.418009 1.090567,0.03041 1.729389,1.16976 0.434269,0.774528 0.460445,0.985132 0.165597,1.332391 -0.479775,0.565036 -0.686607,0.522323 -1.32764,-0.274241 z m 61.484789,0.0623 c -0.245187,-0.288673 -0.168041,-0.642806 0.363503,-1.667858 0.371064,-0.715748 0.674683,-1.407751 0.674683,-1.53778 0,-0.32783 -1.021382,-0.55913 -1.202713,-0.27234 -0.08122,0.128546 0.03743,0.23369 0.26362,0.23369 0.536025,0 0.527979,0.05011 -0.248497,1.547877 -0.463691,0.894409 -0.777494,1.228702 -1.055474,1.124438 -0.670865,-0.251618 -0.436805,0.126398 0.330047,0.533038 0.925905,0.49097 1.271764,0.506363 0.874856,0.03901 z M 40.527401,13.043933 c 0.696328,-0.364248 0.655601,-1.508908 -0.09237,-2.596393 -0.727686,-1.0579686 -1.56747,-1.2490175 -2.117343,-0.481681 -0.486014,0.678228 -0.208879,1.849139 0.64887,2.741578 0.651438,0.677779 0.833431,0.717015 1.560849,0.336496 z m -1.608998,-1.087057 c -0.691832,-1.097409 -0.59002,-1.86987 0.24646,-1.86987 0.460706,0 0.768669,0.254047 1.127665,0.930204 0.903103,1.700969 -0.352768,2.559776 -1.374115,0.939666 z m 56.400885,-0.425019 c 0.690113,-1.003351 0.773955,-1.8876036 0.221508,-2.3357744 -1.288771,-1.0454616 -3.56741,1.7658734 -2.375537,2.9308724 0.648485,0.633839 1.463661,0.408633 2.154029,-0.595098 z m -1.940719,0.359959 c -0.37827,-0.963559 0.797914,-2.9225761 1.578845,-2.6296625 0.587507,0.2203639 0.549723,1.1566585 -0.08784,2.1788925 -0.553949,0.888053 -1.238028,1.094885 -1.490904,0.45077 z m -49.05564,-0.693194 c 0.142911,-0.119108 0.02943,-0.210825 -0.263878,-0.213331 -0.369682,-0.0028 -0.690864,-0.402523 -1.140847,-1.4185253 -0.344466,-0.7777661 -0.707676,-1.4141191 -0.807133,-1.4141191 -0.09945,0 -0.41132,0.1725625 -0.693028,0.38353 -0.497424,0.3724607 -0.494725,0.3817575 0.09364,0.322385 0.495492,-0.050002 0.709644,0.1705419 1.175787,1.2107274 0.409406,0.913603 0.480314,1.301064 0.25173,1.375537 -0.175017,0.05704 -0.318213,0.207576 -0.318213,0.334567 0,0.231515 1.231604,-0.188778 1.701938,-0.580771 z m 46.88978,-0.184608 c -0.267356,-0.161488 -0.20058,-0.541574 0.31156,-1.7734953 0.681869,-1.6402507 0.615788,-1.8616048 -0.555772,-1.8616048 -0.360768,0 -0.351832,0.052048 0.05945,0.3459535 0.465544,0.3327331 0.466313,0.3913281 0.02011,1.5334318 -0.320818,0.8211048 -0.637776,1.2160318 -1.02731,1.2800358 -0.481931,0.07916 -0.429882,0.150439 0.360193,0.493168 0.910407,0.394916 1.494221,0.382642 0.83185,-0.01765 z M 46.994037,10.276474 C 47.545669,9.9072716 47.618588,9.1559715 47.201644,8.1374518 46.745909,7.0241622 46.076058,6.5130712 45.403365,6.7653852 c -0.68951,0.2586159 -0.942796,0.9783011 -0.670687,1.905675 0.426832,1.4546988 1.426333,2.1642808 2.261351,1.6054138 z M 45.514208,9.3777271 C 44.844,8.3163366 44.924344,7.2783203 45.684897,7.1722047 c 0.99485,-0.1388274 1.927156,2.5410924 1.004421,2.8871933 -0.606274,0.227399 -0.598111,0.232104 -1.17513,-0.6816709 z m 42.755711,0.6017946 c 0,-0.1300038 -0.137538,-0.2812334 -0.305671,-0.3360096 -0.216034,-0.070388 -0.146144,-0.5613125 0.238414,-1.6743488 L 88.746745,6.3944003 88.178487,6.2453936 C 87.378679,6.035669 87.214435,6.0530097 87.214435,6.3472634 c 0,0.1418455 0.178123,0.2578948 0.395807,0.2578948 0.510215,0 0.500533,0.5074567 -0.0346,1.8147773 -0.281838,0.688513 -0.555102,1.0047162 -0.791602,0.9160104 -0.198645,-0.074478 -0.361166,-0.032738 -0.361166,0.092892 0,0.1255798 0.326542,0.3449027 0.725636,0.4873767 0.947539,0.3382614 1.121436,0.3480794 1.121436,0.063376 z M 50.911348,8.9215455 c 0.169314,-0.1655034 0.07249,-0.2531018 -0.279806,-0.2531018 -0.429273,0 -0.636121,-0.3144103 -1.018082,-1.5474782 C 49.349816,6.269847 49.085725,5.5734847 49.0266,5.5734847 c -0.316095,0 -1.128277,0.5700288 -1.128277,0.791879 0,0.1713859 0.166437,0.1708488 0.496072,-0.00195 0.439605,-0.2299553 0.541216,-0.1062178 0.892704,1.0870587 0.360964,1.2254564 0.357878,1.3783712 -0.0343,1.7003342 -0.375933,0.3086194 -0.314106,0.3326971 0.484347,0.1885986 0.503407,-0.090846 1.031801,-0.2790743 1.174208,-0.4182624 z M 85.241424,8.3088762 C 85.469094,7.9692528 85.722955,7.2842948 85.805553,6.7867515 85.933314,6.0170879 85.85543,5.817911 85.28346,5.4515836 84.773415,5.1249298 84.486236,5.0863661 84.093504,5.2918092 c -0.545669,0.2854351 -1.100922,1.52658 -1.100922,2.4608569 0,1.2357892 1.538254,1.6162398 2.248842,0.5562023 z M 83.696233,8.4965284 C 83.416104,8.2227202 83.492114,6.9478532 83.83204,6.218623 c 0.213871,-0.4587674 0.483097,-0.6447777 0.857571,-0.5924412 0.456949,0.063863 0.542296,0.2524879 0.524125,1.1583446 -0.02857,1.4276488 -0.854837,2.3597236 -1.517503,1.712002 z M 55.497681,7.8431444 c 0.45079,-0.4406263 0.391937,-2.3076991 -0.09413,-2.9859894 -0.5287,-0.7378007 -1.585071,-0.7495274 -1.983406,-0.022251 -0.165979,0.3031594 -0.234621,0.9558888 -0.15251,1.4505062 0.252698,1.5220479 1.42712,2.3422858 2.230024,1.5574914 z M 54.098874,7.2856709 c -0.616896,-0.9202612 -0.445693,-2.6148664 0.264173,-2.6148664 0.686245,0 1.45812,1.9730248 1.030876,2.6350639 -0.437535,0.6779858 -0.831142,0.6718526 -1.295057,-0.020205 z M 79.739101,7.5717966 C 79.346937,7.2914844 79.322861,7.06557 79.556751,5.8601551 79.918935,3.9934607 79.926125,4.0218937 79.100569,4.0559357 c -0.493961,0.020461 -0.569804,0.069209 -0.2376,0.1528431 0.419919,0.1057318 0.463016,0.2862407 0.308612,1.2926194 -0.243277,1.5856635 -0.405248,1.9310594 -0.830722,1.7714769 -0.19895,-0.074682 -0.361746,-0.031382 -0.361746,0.096192 0,0.2264513 0.670579,0.4199785 1.699593,0.4905406 0.473951,0.032456 0.47846,0.010998 0.06032,-0.2877932 z M 59.39454,7.0924762 C 59.47433,6.9662834 59.30678,6.863058 59.0222,6.863058 c -0.436046,0 -0.546288,-0.243306 -0.701148,-1.5474783 -0.190905,-1.6077409 -0.532254,-1.9048668 -1.451267,-1.2632401 -0.319769,0.2232544 -0.284574,0.2526414 0.183216,0.1528943 0.470552,-0.1003097 0.606469,0.016369 0.725633,0.6224113 0.08063,0.4102136 0.215423,1.0940181 0.299528,1.5195824 0.117832,0.596201 0.05726,0.773743 -0.263878,0.773743 -0.229223,0 -0.416767,0.092816 -0.416767,0.2061183 0,0.2728875 1.810612,0.060129 1.99702,-0.2346101 z m 17.265244,0.028492 c 0,-0.1418454 -0.178124,-0.2578973 -0.395803,-0.2578973 -0.437932,0 -0.461936,-0.3231421 -0.158034,-2.1277836 l 0.206282,-1.2250856 -0.815744,0.035065 c -0.588741,0.02532 -0.655858,0.065501 -0.241189,0.1444285 0.496591,0.094453 0.556918,0.2384467 0.444672,1.061012 -0.24366,1.7855693 -0.369655,2.1122998 -0.826344,2.1428121 -0.251221,0.016624 -0.100519,0.1191082 0.33486,0.2273976 1.158504,0.288136 1.451267,0.288136 1.451267,0 z M 62.542919,6.8502366 C 63.027992,6.8320776 63.022656,6.8115396 62.476999,6.5971094 61.978284,6.4011703 61.882651,6.1665346 61.87926,5.1304594 61.87396,3.4976975 61.591505,3.0638643 60.781831,3.4446167 l -0.613667,0.2885784 0.593701,0.017648 c 0.444024,0.013044 0.593698,0.1718719 0.593698,0.6299973 0,0.3368969 0.07422,0.9752397 0.164935,1.4185258 0.130562,0.6381662 0.07564,0.805974 -0.263881,0.805974 -0.235817,0 -0.428781,0.12962 -0.428781,0.2879954 0,0.1728181 0.237472,0.2257863 0.593698,0.1324845 0.326537,-0.085501 0.831184,-0.1644547 1.121438,-0.1754013 z M 65.954334,6.4577781 C 66.427198,5.9955809 66.510493,4.25056 66.095819,3.4932472 65.919274,3.1708033 65.54367,2.9943687 65.033824,2.9943687 c -0.617094,0 -0.849523,0.1544289 -1.06752,0.7092629 -0.747779,1.9032632 0.744069,3.9700322 1.988009,2.7541465 z M 64.677962,6.2050088 c -0.584303,-0.5711234 -0.475291,-2.3985891 0.166513,-2.791705 0.65193,-0.3993029 1.012571,0.05683 1.065226,1.3474138 0.02768,0.677881 -0.108463,1.220331 -0.370471,1.4764353 -0.376351,0.3678594 -0.455055,0.3649156 -0.861281,-0.032175 z m 4.427285,0.506293 C 69.778983,6.4586092 70.152602,4.943559 69.79925,3.8970641 69.550168,3.159422 69.363115,2.9943712 68.776101,2.9943712 c -1.024349,0 -1.351649,0.44612 -1.351649,1.8423511 0,0.9718098 0.120582,1.3059164 0.586444,1.6248487 0.679725,0.465366 0.580085,0.4426237 1.094351,0.2497256 z M 67.94382,5.6809404 c -0.53035,-1.3634296 0.652385,-3.2199575 1.358011,-2.131643 0.262526,0.4049269 0.305341,1.7991605 0.0734,2.3899802 -0.254429,0.6480795 -1.141071,0.4880597 -1.431402,-0.258327 z m 5.1388,0.6089123 C 73.613081,5.5496169 73.610884,3.9198064 73.07882,3.3996665 72.559003,2.8915678 71.809081,2.8788872 71.391125,3.3711745 70.922599,3.9229854 70.74843,5.6710959 71.098306,6.3101087 c 0.399296,0.729261 1.45503,0.7185088 1.984389,-0.020205 z M 71.55836,6.433207 C 71.46161,6.338652 71.382452,5.7666231 71.382452,5.1620613 c 0,-1.1836189 0.549307,-1.98447 1.195045,-1.742274 0.482101,0.1808235 0.537789,2.420114 0.07152,2.8758686 -0.350337,0.3424316 -0.820383,0.4017171 -1.090648,0.1375486 z"
       id="path882" />
  </g>
</svg>
