<?xml version="1.0" encoding="UTF-8" standalone="no"?>
<!-- Created with Inkscape (http://www.inkscape.org/) -->

<svg
   version="1.1"
   id="svg1148"
   width="80"
   height="80"
   viewBox="0 0 147.52643 147.526"
   xmlns="http://www.w3.org/2000/svg"
   xmlns:svg="http://www.w3.org/2000/svg">
  <defs
     id="defs1152" />
  <g
     id="g1154"
     transform="translate(0,-364.47357)">
    <path
       style="fill:#ffff;stroke-width:0.288138"
       d="M 57.324749,493.6535 C 26.963501,482.19197 12.853391,447.02529 26.916371,417.86655 36.262939,398.487 55.397449,386.45956 76.881909,386.45956 c 26.545101,0 48.933451,18.51438 54.354731,44.94946 0.60587,2.95428 0.6793,4.07903 0.67721,10.37295 -0.002,6.22638 -0.0809,7.44885 -0.66835,10.36019 -3.48216,17.25797 -14.30817,31.48228 -29.89285,39.27623 -4.138361,2.06961 -7.382811,3.20039 -8.552851,2.98088 -2.10788,-0.39544 -2.06975,-0.19914 -2.23663,-11.51526 -0.14253,-9.6654 -0.17986,-10.21267 -0.8186,-12.00015 -0.36809,-1.03009 -1.10959,-2.48674 -1.64777,-3.237 -0.96279,-1.34219 -0.96816,-1.36614 -0.33395,-1.49077 0.35451,-0.0697 1.87,-0.34807 3.36776,-0.61868 8.883891,-1.60506 14.794661,-5.55773 18.004371,-12.03994 1.54463,-3.11949 2.31909,-5.96193 2.77921,-10.20033 0.7742,-7.13154 -0.56109,-12.86074 -4.08796,-17.53977 l -1.32797,-1.76179 0.55713,-2.12806 c 0.72327,-2.7627 0.56091,-6.88209 -0.40187,-10.19593 l -0.66971,-2.3051 -1.2274,-0.0887 c -2.54773,-0.18419 -7.972801,1.84838 -12.124431,4.54259 l -1.82633,1.18519 -2.63981,-0.56671 c -7.53048,-1.61663 -15.97876,-1.56475 -23.27384,0.14295 l -1.90509,0.44596 -1.98476,-1.22085 c -4.47953,-2.7554 -9.22783,-4.56923 -11.99015,-4.5802 -0.88266,-0.004 -1.1449,0.13637 -1.47761,0.78812 -1.26886,2.48564 -1.74836,9.04091 -0.89965,12.29932 0.39578,1.51951 0.39498,1.74756 -0.008,2.29361 -3.95311,5.35513 -5.04254,8.59593 -5.04041,14.99409 0.004,10.99003 3.80982,18.53662 11.52434,22.8497 2.88981,1.61565 6.66791,2.72854 12.47774,3.67549 l 1.0963,0.17869 -0.9086,1.03484 c -1.0418,1.18654 -1.90574,3.05515 -2.33246,5.0449 l -0.29544,1.37757 -2.06535,0.63983 c -3.15577,0.97764 -6.14399,0.88544 -8.60337,-0.26544 -2.15753,-1.00963 -3.81156,-2.53014 -5.3236,-4.89385 -1.47495,-2.30571 -3.32677,-4.05 -5.22596,-4.92248 -1.94415,-0.89314 -4.54938,-1.17037 -5.35044,-0.56935 -0.861,0.64599 -0.33967,1.53555 1.82089,3.10701 2.49679,1.81601 3.91616,3.68128 5.7815,7.59779 1.8249,3.83161 3.37884,5.51832 6.40851,6.95607 2.80501,1.33113 5.94842,1.76308 9.50814,1.30657 1.42663,-0.18296 2.63684,-0.28968 2.68936,-0.23717 0.0525,0.0525 0.1333,2.38748 0.17951,5.18881 l 0.084,5.09331 -0.73583,0.73839 c -1.10456,1.10838 -2.35449,1.1462 -4.99073,0.151 z"
       id="path1158" />
  </g>
</svg>
