<?xml version="1.0" encoding="UTF-8" standalone="no"?>
<!-- Created with Inkscape (http://www.inkscape.org/) -->

<svg
   version="1.1"
   id="svg707"
   width="70"
   height="70"
   viewBox="0 0 150 139.98896"
   xmlns="http://www.w3.org/2000/svg"
   xmlns:svg="http://www.w3.org/2000/svg">
  <defs
     id="defs711" />
  <g
     id="g713"
     transform="translate(-551.77537,-550.91847)">
    <path
       style="fill:#fe0000;stroke-width:0.135471"
       d="m 623.16947,690.79696 c -14.98753,-0.64301 -29.44556,-5.52108 -41.51077,-14.00554 -3.06557,-2.15576 -5.16375,-3.86597 -7.99855,-6.51959 -8.52418,-7.97932 -14.64015,-17.32964 -18.35033,-28.0547 -3.21793,-9.30214 -4.27414,-19.6703 -3.02221,-29.66774 2.35882,-18.83702 13.04946,-36.13262 29.4412,-47.63069 7.13748,-5.00663 15.12522,-8.77393 23.57628,-11.11944 5.32034,-1.4766 10.56037,-2.36144 16.32176,-2.75611 2.45164,-0.16794 7.80552,-0.16584 10.30758,0.004 18.30099,1.24259 34.85941,8.2716 47.76412,20.27572 6.08072,5.65637 10.68686,11.6517 14.43081,18.78343 6.35379,12.10331 8.79115,25.34334 7.1488,38.83376 -1.48249,12.17674 -6.46957,23.88427 -14.39897,33.80257 -2.20278,2.75534 -4.07982,4.75779 -7.11531,7.59014 -6.15283,5.74155 -12.03761,9.69936 -19.71922,13.26225 -9.43822,4.37769 -19.18728,6.7195 -30.00346,7.20705 -3.13697,0.14142 -3.46095,0.14117 -6.87173,-0.005 z m 30.36477,-49.74835 c 2.71466,-0.85939 4.85502,-2.63685 6.03206,-5.00928 0.93201,-1.87871 0.90681,-1.44817 0.90681,-15.50731 0,-14.05909 0.0253,-13.62858 -0.90681,-15.50727 -1.17704,-2.37243 -3.3174,-4.14989 -6.03206,-5.00928 l -1.12488,-0.35611 -25.03268,-0.0365 c -27.93697,-0.0408 -26.2249,-0.0935 -28.39845,0.87397 -2.17138,0.96645 -3.69248,2.34557 -4.7054,4.26622 -1.10597,2.09708 -1.04444,1.16732 -1.04444,15.769 0,14.6017 -0.0615,13.67197 1.04444,15.76903 1.01292,1.92067 2.53403,3.29979 4.7054,4.26622 2.11485,0.94129 0.30598,0.88621 28.25819,0.86054 l 25.17294,-0.023 z M 615.59658,620.33603 V 610.0632 l 11.00128,5.13238 c 6.05066,2.82281 10.98882,5.14239 10.9737,5.15463 -0.0152,0.0122 -4.96574,2.32544 -11.00124,5.14044 l -10.97374,5.11818 z"
       id="path722" />
  </g>
</svg>
